<svg xmlns="http://www.w3.org/2000/svg" width="484" height="446"><path fill="#ec5713" stroke="#ec5713" d="M225.5 46h39q4 3.5 13 2 3.3 2.7 10 2l3 2h5l2 2h5l2 2h4l2 2 13 4 9.5 5.5-1.5-.5-16-6v1l1.5.5-2 .5-1 2.5 2 1 .5-1.5 1.5 3.5h-2q-.7 2.3 1.5 1.5 1.3 2.3 2.5-.5l.5-1.5.5 1.5v2l1.5 3.5 1.5-.5-1 3q.5 3 4.5 2.5l1.5-.5-2 4 15 6-1.5.5-11-5-24-6q-4.7 1.3-6-1h-20l-5 1q-1.5-2.5-3 1l-3-1-2.5.5q.8 2.6-2.5 1.5l-2 1-2.5-1-.5 2-2.5-1-.5 2-3-1v2l-3-1v2l-2-1v2l-3-1v2l-2-1v2l-2-1v2l-3-1-3.5 2.5.5 1.5-2-1v2l-2-1v2l-2-1v2l-2-1-3.5 2.5.5 1.5-2-1-1 3-2-1-1.5.5q.8-2.2-1.5-1.5l-.5 2.5-1 2q2.3 1.3-.5 2.5l-.5-2.5q.8-5.7-3.5-6.5l-3 1-2-2-3.5 2.5q3.8-1.7.5-3.5l-1.5-.5 1-4h-1l-.5 1.5-2-3-1.5.5 2.5-2.5 3.5.5q.8-2.6-2.5-1.5l-1-1-2.5 1.5.5-2.5 1.5.5q.7-3-3-1.5l-.5 3q.2-4.7-3-6l-2.5-.5 2.5-1.5 2 1-2-3-2 1 .5-1.5-.5-1.5-3 2-1.5-1.5 1.5-2.5-2 1-.5-5-2 .5 1 2h-1l-1-2 1-2v-2l-.5-1.5-2 1-2.5-4.5q-.8-2.6 2.5-1.5l2.5-1.5.5 1.5.5-2q3.4.8 4.5-2h2q4.3.8 5-2h6l2-2h7l3-2q7.5 1.5 11-1l3 1v-1zM182 58l-3 1 2 3q2 1 1-1 2-2 0-3Zm2 0 1 2q1-3-1-2Zm127 1v1h2zm2 6-2 2h2zm-122 2q-2 3 1 2zm-4 1v1h2zm-1 1q-2 3 1 2zm2 2 3 3v-2zm5 0v1h4zm122 1 1 2q1-3-1-2Zm5 0-1 3h1zm-127 2-1 2 3 1 1-2-1-1zm3 3q-3 4 2 3l1 1q1-4-3-2zm119 2v1h2zm-119 2v1h2zm4 0v1q3-1 2 3h1q2-6-3-4Zm4 7v3l-1-2-2 1 1 2v2l1 1 1-2h2l-1-2 1-2zm10 7v4h1q1-5-1-4Z" opacity=".996"/><path fill="#ec5713" stroke="#ec5713" d="m175.5 58 .5 1.5-1 2 1 2.5q3-1 2 2l-3-.5v-2l-1.5-2.5-6 2v-1zm-10 4 .5 1.5-2.5 1.5zm-5 2 1.5.5-2 .5q1.3 3-2.5 2v-1zm-7 4-.5 1.5q.8 2.3-1.5 1.5zm181 0 12.5 7.5-1.5-.5-11-6zm-8 1-1 2-2.5-.5zm-177 1-.5 1.5q.8 2.3-1.5 1.5zm27 0 1.5 2.5h-1zm3 0 .5 2.5h-1zm150 3-.5 1.5-.5 3.5-.5-3.5zm-187 1 2.5.5-3.5 1.5zm40 0q2.3-.7 1.5 1.5zm143 1 1 2q-2.8.7-1-2Zm-186 1-.5 1.5q.8 2.3-1.5 1.5zm209 0 11.5 8.5-3.5-2.5q-6.9-2-8-6Zm-161 1 .5 2.5-1.5-.5-1.5-.5zm-54 3-.5 1.5q.8 2.3-1.5 1.5zm56 2 2.5 1.5-.5 1.5-.5-2zm-62 2-.5 1.5q.8 2.3-1.5 1.5zm234 1 7.5 6.5-4.5-3.5zm-168 2q3 1.5 0 3l-1.5-.5 2-1zm150 3 3.5 1.5-1.5.5zm-146 3 1 2zm153 0 2.5 1.5-1.5-.5zm-237 3-10 11zm95 3q-1.7 2 2 4 2.3-.7 1.5 1.5l-2.5 4.5-2-1-1.5.5 5-4-5-4zm170 1 3 4zm-181 8 1 2zm7 1-1 2-1.5-.5zm1 2-1 2zm-108 1-3 4zm102 4-2 3zm-107 2-.5 1.5-2.5 3.5 1.5-2.5zm-7 9 .5 1.5-3 2zm102 1-2 3zm-106 6-2 3zm-9 15-1 2zm-3 7-2 3zm-6 13 .5 2-2-.5zm-2 5 .5 1.5-2 1zm-2 7 .5 2-2-.5zm-2 6 .5 2.5-2.5 3.5-.5-1.5zm-2 8 .5 4q-2.7-1.1-2 1.5h-1zm-2 11 .5 2.5-2 1zm-2 20 .5 20.5h-1zm84 22 .5 11.5h-1zm1 23 .5 2.5h-1zm-49 36 1 2zm75 33 1 2zm8 9 4 5z" opacity=".996"/><path fill="#d0cdc5" stroke="#d0cdc5" d="M223.5 45h44l4 2h8l15.5 4.5-3.5.5-3-2q-7 1-10-2h-9l-3-2h-42l-4 2h-8l-4 2h-6q-2 3-8 2l-33 12v-1l25-10 13-2 3-2q6.3.8 9-2h8zm74 7 2 1h2l14 4 24 11 24 16 24.5 23.5q16.8 17.2 29 39l9 21 5 18h-1l-7-22-11-22-21-29.5q-2.7 1.1-2-1.5l-9.5-10.5q-16.2-15.8-36-28l-24-12h-3l-2-2h-3l-9-4h-4zm-138 12-1 2-16 8L119 90v2h-2v2h-2q1.1 2.7-1.5 2l-15 16-4.5 3.5-17 24-16 33v3l-4 9v4l-2 3q1 6-2 8v8l-2 4v23q-2.7 1.7-1 8l1 1v20q3.7 4.3 2 14l2 3v5l2 3v5l2 2 2 10 6 15 10 19 12 18 12 14.5q2.7-1.1 2 1.5l4 2.5v2h2v2h2q-1.1 2.7 1.5 2l17.5 15.5-2.5-1.5-8-5L92 363.5l-20-30-12-26-5-16v-4l-4-13v-9l-2-7v-41l2-8v-7l7-26 12-27 21-32L112.5 95q20.1-18.9 47-31Zm95 63h17l1 1 16 1 16 4 13 5q28.9 13.1 47.5 36.5l14 21 6 16h-1l-3-9-9-16q-11.9-18.1-28.5-31.5l-19-12-22-9-21-5-26-1-1 1h-9q-3.3 2.7-10 2l-22 7v-1l21-7 10-2h9z" opacity=".325"/><path fill="#d0cdc5" stroke="#d0cdc5" d="m210.5 138 1.5.5-21.5 11.5-19.5 15.5-7 9.5q-2.7-1.1-2 1.5l-14 18q-6.6 14.9-9.5 33.5l-.5-4.5 4-16 6-16q11.8-17.7 27.5-31.5 15.1-13.4 35-22Zm221 49 2.5 6.5 3 15v6h-1v-6l-5-19zm-46 26 1.5 4.5h-1zm52 3 .5 7.5h-1zm-50 3q2.6 2.4 1.5 8.5l2 3v12l2 7v8l-4 11-10 15.5q-2.7-1.1-2 1.5L356.5 308H355v2h-2v2q-2.7-1.1-2 1.5l-10 6.5q1.1 2.7-1.5 2l-8.5 6q1.1 2.7-1.5 2l-15 10-18 8v-1q44.4-19.6 73.5-54.5l14-18 6-11 1-16-1-1-1-18zm51 6 .5 30.5h-1zm-301 4 .5 6.5-1 1-.5 11.5-.5-11.5zm300 28 .5 7.5h-1zm-301 5 1.5 16.5h-1zm300 5 .5 5.5-1.5 5.5-.5-4.5zm-2 12 .5 4.5-3.5 10.5-.5-2.5zm-296 1 4.5 20.5 7 17q8.8 17.7 21.5 31.5 2.3-.7 1.5 1.5l11 9-2.5.5q-18-14.5-29.5-35.5l-11-27-3-13zm292 15 .5 2.5-9 25-11 20q-15 24-35.5 42.5l-27 21-7 3v-1q29.1-15.9 49.5-40.5 26.4-29.6 39.5-72.5Zm-136 53-1 2h-3l-6 4h-3v-1zm-16 6 1.5.5q-.7 2.3-4.5 1.5v-1zm-6 2 1.5.5q-.7 2.3-4.5 1.5v-1zm-10 3 2.5.5-2.5.5zm-75 2q9.6-1.1 15 2h36q6.1-3.4 17-2v1q-10.2-1.2-16 2h-38q-5-3-14-2zm-56 37q18.6 14.4 42.5 23.5l-1.5.5-32-16-8-6zm208 11-1 2zm-3 2-1 2-11 6-9 3v-1zm-24 11 1.5.5-3.5 1.5v-1zm-134 1 17 6 24.5 4.5-6.5.5-19-4-12-4-4-2zm129 1 1.5.5-22.5 7.5-10 1v-1q17.7-1.8 31-8Zm-38 9 5.5.5-5.5.5zm-44 1 4.5.5-4.5.5zm35 0 3.5.5-3.5.5z" opacity=".325"/><path fill="#fab514" stroke="#fab514" d="m296.5 52 1 2zm3 3 2.5 1.5-1.5-.5zm8 2 1 2zm3 2 12 4 2 2h3l1.5-.5q-2.3 1.3.5 2.5l3-1 1.5 3 2.5-1 1 3 3 1 1.5-.5-.5 1.5 2-1 1 3 2-1 3 4 2 1q1.3-2.2 2.5.5l-.5 1.5 2-1v2l4 3 1.5-.5 1.5 2.5 1.5-.5-.5 1.5 4 3 1-1 5.5 5.5 4 5 1.5-.5 4.5 4.5-.5 1.5 5.5 4.5 2 3 1 2.5 5 3.5 17 26 2 10 1 21-1 1-1 20-5 23-11 29-7.5 13.5-.5-1.5q3.3-3.7 2-12l-2-7v-12q-3.2-2.3-2-9l-10-26q-13-23.9-33.5-40.5-17.4-14.1-41-22l-22-5-28-1-28 5-30 13Q176 157 161 174.5l-3.5 4.5q-2.2-.7-1.5 1.5l-6.5 9.5-.5-1.5q16.3-40.2 45.5-67.5l3-2q19.9-20.1 48-32l21-7 12-1 1-1h20l30 7v-1l-2.5-.5 1-3.5h-2.5l-4.5-4.5v-2l-1.5-3.5h-2l-3 1v-1q2.3.8 1.5-1.5l1-3h-1l-.5 1.5-2.5-1.5q.8 2.3-1.5 1.5l2-3 1.5.5q-.7-2.2 1.5-1.5v-1l-6-2zM324 70v1h2zm0 4-2 2 2 1zm5 0-1 4h1zm-3 1q-2 3 1 2zm5 10v1h2zm5 2v1h2z" opacity=".996"/><path fill="#fab514" stroke="#fab514" d="M314.5 72q2.3-.7 1.5 1.5zm5 0 .5 2.5h-1zm-5 7 2.5.5-2.5.5zm10 2 2.5.5q-2.1 3.3-2.5-.5Zm-274 154 .5 7.5h-1z" opacity=".996"/><path fill="#e52914" stroke="#e52914" d="m153.5 71 1 2zm-4 1 2.5 1.5-1.5.5zm-4 2 3.5 1.5-1.5 1.5zm0 3 1 2zm-6 1-1 2zm11 0-1.5 2.5-.5 1.5-.5-1.5zM136 81l2 .5-3 5 .5 1.5-1.5-1.5.5-3.5-1.5-.5 1.5-.5 1.5.5zm6.5 1 1 2z" opacity=".996"/><path fill="#e52914" stroke="#e52914" d="m129.5 85 .5 2.5-2 1-.5-1.5-.5 2.5.5 1.5-1.5-.5q.8 2.6-2.5 1.5l-1.5-.5 1.5 2.5 2 1 1-2 1 2-1.5.5 3.5 2.5 1-2-1.5-.5 1-1-1.5-2.5 2 2q2-4 4 0h2.5q-1.2 3 2.5 2l3.5 5.5 2 4-2-1-3-5q2.3-1.2-.5-2.5l-2 1-1.5-3-2.5-1-1.5 3.5 3-1-1.5 2.5 1.5.5-3 2v-2l-.5-1.5-2 1-6-4-1 2 3 2q1.8-2.7 3.5 1.5l-2 .5-.5-2-2.5 1.5 4 2-1.5.5-3.5-2.5-.5-2.5-1 2-.5-1.5 1-3-.5-1.5-3.5 1.5q-.7 2.3 1.5 1.5l-1 2-4.5 1.5 1 2.5 3-1.5.5-1.5 3.5 2.5-.5 1.5 1.5.5-1.5.5-4-2-1 1-3-2-2.5 1.5 2 1-3 1 3 2q-.7-2.2 1.5-1.5h5.5v3q2.7-1.1 2 1.5l-1.5-.5q-2.6-.7-1.5 2l3.5 1 1-3 1.5 3.5-3 1 .5 1.5-4 2-1-2-3.5 2.5 1.5.5 1.5-.5-4 4 1.5 1.5.5-2 3-1.5q-.8-2.6 2.5-1.5l5-1q1.5 2.5 3-1 2.6.7 1.5-2h2l1.5 3 4.5-3.5-1 2 1 3.5q-2.7-1.1-2 1.5l-2 1 2-3q-1.7-3.2-3.5.5l-1.5-.5 2-1-5-.5.5 2 1.5-.5-1 2 1.5.5q1.3-2.3 2.5.5l1.5 3.5 2-3 2 4 3-2 .5 2 2-.5-1-3.5-2-.5 2.5-3.5.5 1.5q-2.2 1.3.5 2.5l.5-2q5.2 2.1 4-2.5h1l-1 3 .5 1.5-3-1v2l-1.5-.5q-1.1 3.3 1.5 2.5l1 2-4.5.5 3 2-2.5 1.5-1.5-5-2 .5q2.8 1.8-1.5 3.5l-2-1v2q-2.8-1.2-.5-2.5l-.5-1.5-6.5 2q-1.1 2.7 1.5 2v2q2.3.8 1.5-1.5l1.5-2.5.5 1.5q-2.2 1.3.5 2.5l3-1q-1.6 1.8 1.5 3.5 1.1 3.3-1.5 2.5v1l5 2 1.5-4 2-.5-2-1 2-3.5 2.5-1v3q-3.7-1-2.5 2l2.5 1 .5-2q2.7 1.1 2-1.5v-2l-.5-3.5-1 2-.5-1.5q2-3.5 4 1l-1 2v2q-.7 2.6 2 1.5l.5-5 1 3 1-3 1 3 1.5.5q-2.2 1.3.5 2.5l2.5-3.5h-2q-.7-2.2 1.5-1.5l2-1-.5 1.5v2.5q3-1 2 2l-2 .5.5 1.5-3-2h-2l-1.5.5 1 2h-1l-.5-1.5-2 1-2.5-1.5-1.5 2.5.5-1.5-.5-1.5-1.5 3.5 1.5 2.5 4-3 2.5 1.5-2.5 1.5h-2q-2.2-.7-1.5 1.5l.5 1.5-1.5-3q-3.7 1.3-2-4.5h-1l-1 2q2.3 1.3-.5 2.5v-2l-2.5 1.5 7 4-1.5-.5-2.5 1.5 1 3.5-2 .5 2.5 3.5 2 1 3-4 2 5 .5-1.5-1-2h1l1 3.5h4v1.5l2-1-1-2 2-.5.5 2 1-3 1.5.5-3-6 2-.5.5 2 2.5-1.5-2 3 3-2 5-7-.5-1.5 1.5.5-2.5-3.5-1.5.5 3.5-2.5v1l-1.5.5 3.5 1.5 3.5-3.5 4-5-.5-1.5q1.3 2.3 2.5-.5l3.5-4.5q15.7-16.3 36-28l-1 2q-23.3 13.7-40.5 33.5l-20 26-14 26v2q-7.5 16.5-12 36v6l-2 6-1 27 1 1v14l2 5v7q2.7 2.3 2 8h-1l-.5-3.5-1.5 1.5 1.5 4.5-3.5.5 2.5 1.5 2.5-1 .5-2 7.5 20.5 6 11q8.8 15.2 21.5 26.5l4.5 3.5-1.5.5-3-2-2 1-7-3-7-1-9-5h-2l-22-10-6.5-4.5-.5-1.5-1 1-3-3-8.5-5 1-3.5-2.5 1.5-2-2L91 312l1-5-3.5-2-.5 1.5 1.5 2.5Q74.2 294.8 64 275.5l.5-1.5-2.5-1.5-10-22v-2l1-2-1-2 1-2-.5-1.5 1.5-.5-2-4 1-4v-2l1-2-2-.5 1.5-3 1.5-.5-2-1 1.5-.5 2.5 1.5-1.5-2.5q-4.6 1.2-2.5-4l2-.5-1.5-3.5-1 3-.5-6q2.7 1.1 2-1.5h1q-.7 3.8 1.5 4.5l.5-1.5-1-1 1.5-2.5-3.5-1.5 2-1-.5-3.5 1.5.5 1-2q-3.5-1.7-2-7.5l4-1.5-2-1v-2l3-6-.5-1.5 1.5-.5-.5-1.5q2.6-.8 1.5 2.5 1.5 3 3 0l-2.5-4.5-2 1 .5-1.5.5-1.5 1.5.5-1-3 2.5-6.5q1.3 2.3 2.5-.5l-2-.5-1-2.5 1.5.5 1.5-.5v-2l.5-1.5 1.5.5-1-2 2-1-.5-1.5 1.5.5-1-2 1-2.5 2-.5v-2l6.5-10.5 1.5-.5-1-2 3-3 2-5.5q3.8 1.5 3-1.5l-.5-1.5 1.5.5 2-6.5 3.5-1 3.5 2q1.1-2.7-1.5-2l-3.5-1.5 2.5-.5 1.5.5-1-2 5-3-1-1 3.5-3.5q1.3 2.3 2.5-.5l-1-2.5h2q-1.1-2.7 1.5-2 1.3 2.3 2.5-.5-2.8-1.7 1.5-3.5l2 1 1-2-1.5-.5 6-5-.5-1.5h2q2.3.8 1.5-1.5h2l1.5-2.5 1.5.5zM119 102l1 2q1-3-1-2Zm-11 5-2 2 1 3-4 2 1 3 4-1-1 2h2l-1 2h2l1 1-1-2 1-2h1l-1 2h2l1-2-4-3q1-2-2-3l1-1zm7 1v2l-1 2 4-1 1-2h-1zm-12 2 1 2q1-3-1-2Zm9 1-1 2 3 2zm4 1q0 3 5 4l1-2zm-15 3-2 2h2l-1 2q1 3-1 2v1q2-1 1 2l-2 1-1-1-1-4q-4-1-3 2l2-1-1 2 3 3 3 2-1-1h2l2-1-1-3q2 1 1-1l1-2q-3-1-2 2h-1l2-3q2 1 1-1zm35 2 1 2q1-3-1-2Zm-30 1 1 2q1-3-1-2Zm19 1-2 2q-3-1-2 2l-3 1 1 4q-1 2 3 1l1-2-2 1v-1l-1-1v-1l3 1-1-4 3 1 1-3zm2 1 1 2q1-3-1-2Zm-23 1 3 4v-3zm4 0-1 7 3-2-1-2 1-2zm11 0 1 2q1-3-1-2Zm-7 1q-2 3 1 2zm14 1-3 4h3l-3 6h2l2-4q3-2-1-3l2-1zm6 1-2 4v1q2 1 1-3h2zm-20 1-3 4h2l2-3-1 2h2l1-2 2 4q3-2-1-3 1-4-4-2Zm25 0-2 2 2 1zm-45 2-2 3 2-1 1 5 1-3q-1-3 3-2v3l-2-1-1 2 4 1h2l-2-1 2-1v-1q-4 1-2-3h-3zm41 0v1h2zm-25 2 1 5 2-3zm4 0 1 2q1-3-1-2Zm7 0-1 2q3-1 1 4 1 2 5 1v-1q-3 1-2-3h-2zm3 0v2l2-1zm-18 1-2 2 1 2 2-3zm12 0-1 2 2 1zm12 0-2 2h2zm-40 2-3 2 2 2v-1h2zm25 0q-2 4 3 3l-1 4q-1 2 2 1h2l1 1-2 1 1 2 2-1q-1-3 2-2l1 3-4 2h3v1h-4q-1 3 2 2h2l3-2-2-1 2-1-1-3-5-3h-2v-1l-1-2q1-3-2-2v-2zm-7 1 1 2q1-3-1-2Zm20 0-1 2 3-1zm-31 1 2 4-2-1-1 2-2-1q-3-1-2 2 1 2 3 0l3 2-1-1 1-2 1 2v-1l3 1 3-1 1 1q1-3-2-2v-2l-3 1v-1zm6 0v3l2-1 1 2v-3zm9 0-2 2q4 1 4 7l-4 2 2 3 2-3q2 1 0 3h2l1 1-2-5v-2l2-1-1-1zm19 0 1 2q1-3-1-2Zm4 0-2 2h2l-1 4 5 2v-4l-2 1v-1zm24 0-2 2h2zm-68 1v3l3-2zm17 0-1 4 2-1zm30 0q-2 3 1 2zm-52 1 3 4 1-2q-3 1-2-2zm42 0-3 3 3 1zm29 0q-2 3 1 2zm-46 1-2 2h3zm20 0q-2 3 1 2zm-1 2-2 2 2 1zm-47 1-2 2q-1 2 2 1v2h2zm2 0 1 1-1 2 1 2 2 1-1-3 1-2zm5 0-2 3 2 1zm42 0-1 3q2 3 3 0v-3l-1 2zm-37 1-1 1q-4-1-3 2h3l1-1zm4 0v2l2-1zm11 0q-2 3 1 2zm31 0-1 2-2-1-3 1h2l2 3 1-2v5q1 2 3 0l4 1h1l-2-4h2q-2-4-7-3zm-37 1 1 2h1zm25 0-1 2q2 3 3 0zm-31 1-3 2h2l2 2q1-5-1-4Zm11 0-2 3 2-1zm-16 1-1 4 2-1zm10 0 4 4v-1zm-22 1v2q3 1 2 3l2-1 2 3 1-3h-1l-4-2q1-3-2-2Zm19 0q-1 3 2 2 1-3-2-2Zm20 0-2 4h2zm12 0v5l-1-2-1 3v2q-1 2 2 1l-3 7q3 1 2-1l3-3h2v2l4 2v1h4l1 2q2-1 0-2l2-1v-1l-3 1-1-1q5-3 2-5l-3 6-1-2 1-2-3 1-3-2q3-2 1-3l1-3-2-1-1 3 1 2h-1v2q-3-1-1-2l-1-3h2v-1q4-2 1-4l-1 2-2 1 1-3zm-46 1 1 2q1-3-1-2Zm5 0-2 3 2-1zm11 1q-1 3 2 2 1 2 2 0zm7 0-2 3 1 1 2-1zm-19 2q1 3-1 2l-1 2 7-2v-2l-3 2v-1zm28 0-1 3-2-1-4 7q2 3 3 0l-1-2q1-4 5-3zm-39 1-1 2-2 1 2 2 1-2v2q-2 1 1 2l2-4h-1zm17 0v2l-5 1v1l6-1 1-2zm15 0-1 2h3zm14 0-1 3h1zm14 0v3l2-1zm3 0-1 3h4v2h3zm-59 1 1 1 1 3-1 2-2 4 3 1 1-7 1-2q-3 1-2-2zm19 1-4 1v1q4 1 6-1zm6 0 1 2h1zm14 0-4 2 7 2h1q-2-5-3-2zm-15 1-2 3 1 1q4-2 1-4Zm22 0-2 3h2q3-1 0-3Zm-53 1v3l-2 1 5 1zm67 0-2 2 2 1zm-51 1v2l2-1zm6 0v3l2-1zm25 1-4 2h4l-1 2q1 3-3 1v2h3l2-1v-2l2 1v-1l4-2-5-1v2zm27 0v3l-2-2-2 1 1 2 2 1-1 2-3 2h3l2-3 3 2 2-3-2 1-3-1 3-2zm-62 1 1 2q1-3-1-2Zm4 0-1 2 3 2zm3 0-1 2h3zm7 0v1h3zm-2 2 1 5 4 1-4-4q1-3-1-2Zm5 0-1 2 4 1v-2zm9 0v2l2-1zm4 0-1 2-2 1 2 1h-2l1 3v-1h2v-3q2-2 0-3Zm42 0v6l2-1-1-2 1-2zm-81 1v1h2zm13 0q-2 3 1 2zm-10 1-2 2h2zm5 0v3h1q1-4-1-3Zm26 0 1 2q1-3-1-2Zm19 0 3 3 5-1q-2-4-3 0zm25 0v2l2-1zm-86 1v1h2zm6 0v2l2-1zm7 0-2 2h2zm6 0 1 2q1-3-1-2Zm19 0v3l-1-1-2 1 4 1q1-2 3 1h2zm21 0q-2 4 2 5v-3zm-54 1-2 3 1 1 2-1zm24 0-2 2h2zm42 0 3 4v-1zm13 0-2 3-3-1 1 2-3 1 2 3-3-1 1 3 2 1-5 3h2l-1 4-5 1v1l7-1-1-1 3-5 1 1-2 1h2q1 2 2 0-3-2-2-6v-2l2-3 1 3 3-1-1-1-2-3 3 1v-2zm-70 1 1 2h1zm41 0-2 1-3 1q-1 2 3 1 1-2 3 1l1-3zm14 0-4 3 2 1 3-3zm19 0-1 3q-2 1 1 2l1-2zm-79 1v2h5zm-8 1 1 2q1-3-1-2Zm21 0-3 2 3 1 1-2zm4 0q-1 3 2 2 1-3-2-2Zm8 0-1 3-2 1q1 2 3 0 2 1 1-2h3zm25 0-1 4 2-1zm5 0-1 3-1-2-1 2v1q4 1 3-1 2-2 0-3Zm12 0q0 3-3 2l1 3-1 1h3l-1-1 1-2zm-70 1 2 5 2-1q3-1 0-3l-1 2h-1q1-4-2-3Zm10 0-1 2 2-1zm8 0-2 3 2 2q2-1 0-2h2v-2zm16 0v3l2-1zm10 0-2 2q1 2-1 1l1 4 3-1-2-2 2-1zm19 0v2l-1 3 2-1 3 3-2-5zm-17 1 1 1q1 2 2 0zm-52 1v2h3q1-4-3-2Zm5 0-2 4q1 2-2 1l-2 4q2 3 3 0l-1-1 1-2 1 2 2-3zm39 0-2 1 1 2 2-1zm23 0-1 2-1-1-1 3 3 1h-4l-2-1q-5-2-4 2l2-1 2 2-1 3 1 1-4-1v-3l-2 4 3 1h-3l-2 4 1 1 2-4 4 1v-2q3 1 2-1h2v-2h-3l2-1-1-1 6-1zm20 0-1 2-3 2q2 3 4-1zm-68 1 1 1q1 4-2 3l1 2 3-2 2 1h2l-1-1q-2-4-3-1v-1zm12 0-1 2q-2 1 1 2h2zm-18 1-2 2h2zm14 0 1 2q1-3-1-2Zm26 0v2q2 3 3 0zm-55 1v3q3-1 0-3Zm9 0-3 6h2l2-4 1 2v-3zm30 0 1 2h1zm-26 1-1 2 3 1zm24 0v3q3-1 0-3Zm11 0-2 2h2zm6 0 1 2q1-3-1-2Zm30 0 2 5v-3zm-55 1v2l2-1zm44 0q-3 1-1 3l-1-1-2 3h2q1-3 3 1l1-1-2-1zm-34 1v2q-3-1-2 2h2q-1 4 2 3l-1-2q2-6-1-5Zm10 0q-1 3 2 2 1-3-2-2Zm3 0v3l2-1q1-3-2-2Zm-40 1-1 3h2zm4 0v3q3-1 0-3Zm10 0 1 4 1-3zm9 0-6 2 5 1h-1l1 2 3-1-2-1zm7 0 1 4 1-3zm25 0q0 4 2 1zm-69 1v1q2-1 1 2h1q1-4-2-3Zm20 1 1 2q1-3-1-2Zm3 0 1 2q1-3-1-2Zm3 0 1 2q1-3-1-2Zm21 0-1 3h2zm-36 1 1 1 1 3h2l-1-2zm63 0-4 1-1 3 1 1q0-3 5-3zm8 0v2l2-1zm-74 1-4 3 3 1 1-2zm10 0-2 3 3-2zm10 0-2 1v1q2-1 1 2h2zm3 0-1 2 3 1 1-2-1-1zm9 0v5l4 2 1-2-2-1zm16 0v1h3zm-54 1v1h2zm8 0 1 3q-1 2 3 1l-2-2q1-3-2-2Zm14 0-2 2h2zm27 0 1 2q1-3-1-2Zm17 0-4 3 3 1 2-3zm-23 1v1q2-1 1 2v1q2 1 1-3h2zm38 0-2 3h2l1 1zm-73 1-2 2 2 1zm12 0v4h2zm3 0 1 3-1 2q-4-1-3 2h3l4-4zm10 0q-4 2 0 4l-3 1 4 1 1-2q-4-2-1-3zm14 0v2l2-1zm3 0-1 3 3 1-1-1 2-1zm25 0-1 1q-4-1-3 2l5-1zm2 0v1h2zm-78 1q-2 3 1 2 1 3-2 2l1 2 5-3 1-2-2 1zm19 0-2 2h3zm41 0 1 5h-2l2 3 2-1-1-3 2-1v-2l-2 1v-1zm-64 1-1 2q4 1 3-1zm82 0-3 1 2 3 1-2zm-71 1-3 2-2 3 3-2 2 1v-1q2-2 0-3Zm3 0q-2 3 1 2zm28 0 1 4 1-3zm28 0v1h3zm-51 1-1 3 3 1q3 1 2-1h-1q-3-1-1-2zm30 0v2h3q1-4-3-2Zm4 0v2l2-1zm8 0-1 2v1h2zm16 0 1 2h1zm6 0-1 2 3 2zm2 0 1 2q1-3-1-2Zm-69 1-2 2 2 1zm40 0 1 2q1-3-1-2Zm16 0-2 1v2l-1-1-3 2v1l3-1 2 1 2-1 1 3v-3q-4-2-1-3zm4 0-3 2q2 3 3 0zm-36 1q-1 4 4 3l2 4v-1l2 1h-1v1q4 1 2-4l-2-1q-3 1-2-2l-2 1zm7 0q-2 3 1 2zm-11 1v3h1q1-4-1-3Zm14 0-2 2h2zm-37 1-2 2h2zm5 0q0 4 2 1zm8 0q-2 3 1 2zm3 0v1h2zm27 0-2 2h4q1-3-2-2Zm20 0 4 4v-1zm-75 1 1 4 1-3zm3 0-1 4 1 1 2-1-1-1 1-2zm12 0-2 2 1 2 2-3zm23 0-1 2-2 1h2l1 2 1-2zm-30 1v2l2-1zm21 0q-2 3 1 2zm27 0q-3 2 0 3h3q-1-3-2-1zm3 0 2 2q1-3-2-2Zm-48 1-1 3 3 1-1-1q1-4-1-3Zm6 0 1 2q1-3-1-2Zm4 0 1 1 1 1q1-3-2-2Zm43 0 3 3v-1zm-67 1v2l1 1-4-1 1 3q-1 2 2 1l-1-1 4-1-1-1q1-4-2-3Zm23 0v3q3-1 0-3Zm13 0q-1 3 2 2 1-3-2-2Zm29 0q-3 2 0 3 3-1 0-3Zm7 0v3l3-2zm11 0 2 2q1-3-2-2Zm-36 1-3 2 3 1h1zm31 0v1h3zm-65 1-2 2h3zm5 0v2l2-1zm34 0-1 2 2 1zm9 0-3 2q2 3 3 0zm2 0v7l-1-1-2 1q-2 3-3-1l-2 3h3q2 1 0 3l3 1 2-1-3-1q-1-4 3-3-2 2 1 4l-2 4 2 1v-1l2-4-2-2 1-5zm19 0-2 2h2zm-77 1 1 3 1-2zm12 0-1 4h1zm10 0v2l2-1 3 3q-2 4 2 3l-1-1 2-3-4-3zm10 0q-3 2 0 3l1-2zm29 0v1h2zm12 0-4 2-1 4 1 2 5 1h1l-1 2 1 3 1-6q-2-2 1-3l-1-2-3 2 1 2h-1q1-3-1-2v2h-2v-3q3 1 2-2l3 1v-2zm-37 1q-2 3 1 4l3-1-2-3-1 2zm28 0-4 2h4zm-45 1v2l2-1zm23 0-1 4h-2l2 2 2-3zm4 0-3 2h3zm3 0 1 2q1-3-1-2Zm-47 1 1 1 1 1q1-3-2-2Zm14 0 1 2q1-3-1-2Zm7 0-2 2h2zm-9 1q-2 3 1 2zm50 0-2 3 2-1 1 3-2 1 3 1 2-1-1-4zm-67 1-2 3h3l1-2zm5 0-2 5v1q3 1 2-1zm2 0 1 3v-2h2zm20 0v2l2-1zm21 0q0 4 2 1zm-35 1-2 2q-2 4 2 3zm3 0-2 3 2-1zm18 0q0 3-2 2l-3 4h4l-2-1 3-1zm4 0-1 2 2-1zm9 0-2 5 3-2zm-23 1-2 3 2 1q-1-3 2-2l1 3 2-3zm16 0 1 3 1-2zm-42 1-4 2h5q1 2 2 0zm9 0-1 5q-1 2-2 0l-1 2 4 1 1-3q2 1 1-1h-1v-1zm44 0-2 1 1 2 3-2zm-31 1 1 2h1zm34 0-1 3h2zm-12 1-7 3v-2l-2 3 2 2v-1l3 1q2-1 0-2h2l1-2v2h1zm10 0-2 2h2zm22 0-2 2 3 1q2 1 1-1zm-76 1v3h1q1-4-1-3Zm16 0-1 2-1-1-1 3h4zm53 0-2 3 3 2zm3 0v2l-1-1-1 2 4-1zm-50 1v2l2-1zm4 0-2 3 2-1zm5 0-3 6h4l1 3 1-2-4-2 1-2zm27 0q0 4 2 1zm-55 1q-3 4 1 3zm9 0-2 2 2 1zm8 0-1 2h3zm8 0-2 3 2-1zm6 0-2 2h2zm14 0v2l2-1zm27 0-2 2 3 3 1-2-1-1v-1zm-76 1 1 2q1-3-1-2Zm55 0 1 3h-2l1 3 3-2-1-1 1-2zm25 0-1 4h1zm-35 1-1 2 2 1zm14 0-1 2 2 1zm8 0 1 2q1-3-1-2Zm6 0 1 2q1-3-1-2Zm-76 1-1 3 2 1zm3 0-2 5 1 3 2-4zm2 0-1 2h4zm40 0 1 2q1-3-1-2Zm7 0 1 2h1zm21 0-2 3 2-1 4 3zm-55 1-1 4v2h-3l-1 2 4-1 3 1q2-1 1-4h-1q1 3-2 2zm22 0-2 4h3zm28 0-2 2h4q1-3-2-2Zm10 0 1 4q3-2-1-4Zm-70 1v2l2-1zm14 0-1 2h3zm6 0 1 3 1-2zm34 0-1 3h3v-2zm20 0-1 4h1zm-34 1q-3 1-1 3h-2q-1 2 2 1 1 2 2 0l-1-3h2zm5 0-1 3h2zm13 0-1 2h3zm-40 1-2 4 2-1zm44 0-1 4 4 1q1-5-3-3zm3 0 1 2q1-3-1-2Zm-61 1-2 2h3zm19 0q-2 3 1 2zm27 0-1 3h1zm-24 1-2 2h2l1 1zm2 0v3l2-1q1-3-2-2Zm5 0v1h2zm21 0-1 2q4 1 3-1zm4 0 2 2q1-3-2-2Zm13 0 1 1-1 4h2v-5zm-74 1-1 2q2 3 3 0zm23 0-2 1 1 2 2-1zm28 0-1 2 2 1zm4 0-2 2h2zm-20 1v2l2-1zm7 0-2 3 2-1zm19 0-1 2-1-1-2 1 1 2 2-1-1 2h2l1-2zm12 0-2 2h3zm-74 1q0 3-2 2l1 2 2-1zm18 0q1 3-2 5l3 1v-5h2zm16 0-2 2 1 1 2-1zm11 0v7l2 1q1-3 6-2l-1-2-5 2-1-2 1-2zm22 0 1 2q1-3-1-2Zm-41 1-2 3 2-1zm13 0-2 2h2zm27 0q-3 4 1 3zm-52 1v3q3-1 0-3Zm6 0 2 3q2-1 1 2h3v-1q-3 1-2-2h-2v-2zm10 0v3l-2 1h3l1-2zm28 0-1 3-3 1h3q1 2 2 0zm15 0-2 2h2zm-70 1v1h2zm4 0 1 2q1-3-1-2Zm5 0-3 1 1 2 2-1zm14 0 1 2 2-1zm9 0-1 2h-2q-1 3 3 1zm-39 1v2l2-1zm42 0-2 2h2l1 1q1-4-1-3Zm25 0v3l2-1q1-3-2-2Zm6 0-4 3 3 1 2-3zm5 0 2 3v-1zm-69 2v1h2zm16 0v2l-1 2h3l-1-2q1-3-1-2Zm21 0-3 2 4 2 1-2h-1zm31 0-1 3h2l-1 4 1 4-2 1 2 3q3-5 1-14zm-71 1-1 4h1zm25 0-1 2-1-1-1 2 3 1v-1q2-2 0-3Zm23 0 2 2q1-3-2-2Zm4 0 1 4 1-3zm8 0 1 2h2zm-58 1v2l3-1zm35 0-1 3h1zm31 0-1 3h1zm-76 1-1 3h6l1-1zm40 0q-3 1-1 3h-1l1 2 5-1-1-2-3 1zm11 0q-3 2 0 3 3-1 0-3Zm16 0-2 3 4-1zm7 0-2 2 3 2zm-61 1-2 2h2zm3 0-1 2 4-1zm7 0q-2 3 1 2zm2 0 2 3v-1zm5 0q-2 3 1 2zm23 0v2l2-1zm4 0 3 3v-2zm-37 1q-2 3 2 4h2zm51 0q-2 3 1 2zm6 0v4h1q1-5-1-4Zm-72 1 1 3 1-2zm12 0 1 2q1-3-1-2Zm16 0-1 3q5-2 4 2h2l-2-4-2 1zm24 0-2 2q-1 2 3 1l1 3q2 1 1-3-1-3-2-1zm7 0-2 2h2zm4 0v2l-2-1-2 3 2-1 3 1v-4zm-23 1v4l-1-1-2-1 1 2h-2q-1 2 2 1v3l-3-3-3 2q1 2 3 0v2l6-1v-2q1-7-1-6Zm3 0q-2 3 1 2zm6 0-2 2h2zm19 0-1 5 2 1-1-3q2-2 0-3Zm-64 1-2 2h2zm31 0q-2 3 1 2zm-20 1-1 4h1zm5 0-2 3 2 1zm4 0-2 2h2zm1 0v2l2-1zm22 0-2 3 2-1zm-35 1 1 2q1-3-1-2Zm17 0 1 2q1-3-1-2Zm20 0-2 2 1 1 3-2zm17 1-1 3 1 2h2zm5 0 2 3v-1zm-59 1-2 2 2 1zm13 0-2 2q-1 2 2 1zm33 0-1 2 2 1zm-59 1-3 2 2 2 1-2zm5 0v1h2zm26 0-2 2 2 1zm39 0 1 5 1-2q1-4-2-3Zm-63 1v2l2-1zm37 0q-5 2-1 4v-1l3-2zm20 0q0 3-3 2l1 2 3-1zm-37 1 1 2q1-3-1-2Zm20 0-3 2h3zm-42 1-1 2h3zm29 0 1 2q1-3-1-2Zm38 0-1 3h2l1-2zm4 0-2 3 1 2v2q1 2-1 1l-4 5h2l-1 2 3 1-1-3v-2l2-1-1 8 1 3h-1l-1 2 3-1zm-49 1-1 2 3 1v-2zm-5 1-3 4 1 2 2-4zm29 0-1 1q-5-2-4 2h3l3-2zm9 0-1 2 2-1zm7 0-3 2 1 2 2-1zm-60 1-1 2 2-1zm17 0-1 2q-2 1 1 2 2-1 1 2l2-1-3-2zm17 0-2 2h2zm30 0-1 1q-3-1-2 2h3q3-1 0-3Zm-13 1-1 3h1zm4 0-1 2h3zm-60 1-2 2q-1 3 2 2l-1-1h2zm33 0-1 2 2 1zm6 0q-1 3 2 2 1-3-2-2Zm12 0q-2 3 1 2zm-41 1 3 3v-2zm34 0v2l2-1 3 1h1q-1-3-6-2Zm14 0q-2 3 1 2zm-28 1-1 2h3zm36 0v2l2-1zm-57 1 1 2h1zm7 0-1 3h1zm6 0-3 2 4 1zm16 0-1 2 2 1zm10 0-2 3 2-1zm-45 1v3h1q1-4-1-3Zm3 0 1 2h1zm27 0v2l2-1zm11 0-1 2 2 1zm24 0-2 2h2zm-71 1v4l3-1-1-1v-1zm15 0 1 2q1-3-1-2Zm37 0-1 2h3zm10 0-1 2v4h3l-1-1 2-1-2-1zm4 0 1 2q1-3-1-2Zm-21 1 2 3v-1zm-36 1v3l2-1zm5 0-2 3 2-1zm20 0 1 2q1-3-1-2Zm4 0q-3 5 1 4l1 3 1-3v-2l-2 1zm2 0 1 1 1 1q1-3-2-2Zm-24 1-2 4h3l-1-1 2-1zm3 0 1 2q1-3-1-2Zm5 1q-3 5 1 4zm20 0-3 3h4zm8 0-1 3h1zm14 0v1h2zm-60 1-4 3 3 3 2-1 1 2 1-2-4-1 2-3zm24 0-3 2h3zm6 0q-2 3 1 2zm34 0-1 4h1zm-50 1 1 2q1-3-1-2Zm40 0-3 2 3 1zm5 0 1 3h-2l-1 2 2-1 3 1-1-1 1-2zm-52 1-3 3 1 2h1q-1-4 2-3zm36 0v2l2-1zm12 0v2l2-1zm13 0-1 2q-4 1 0 3v-1q4-2 1-4Zm-58 1-2 2h2zm13 0v1q2-1 1 2h1q1-4-2-3Zm-7 1-2 2h2zm4 0v2l2-1zm20 0v2l4 1v-2zm9 0-4 1 1 4v-3l3 1q3-1 0-3Zm6 0-1 3h1zm-16 1q-2 3 1 2zm-2 1-1 3 3 1q1-3-2-2zm14 0v3h1q1-4-1-3Zm-42 1-1 3h2zm5 0-3 2h4q1-3-1-2Zm20 0q0 3-3 2l-1 3 1 1 2-3 1 4 3 1h1l-3-2zm8 0q-2 3 1 2zm17 0v3h1q1-4-1-3Zm6 0-3 3h4zm-66 1 1 3 1-2zm5 0 1 3q-1 3 2 2l-1-2q1-4-2-3Zm16 0v3q3-1 0-3Zm6 0-2 3h2zm46 0q-3 1-1 3l-3 2 2 2 1-3v2h1zm-49 1q-3 2 0 3l1-2zm24 0-3 4 3-1q3-1 0-3Zm2 0-1 3h3v-2zm6 0-1 2 2 1zm-26 1q-3 2 0 3l1-2zm-26 1-1 2 3 1zm12 0q-2 3 1 2zm5 1 1 3 4-1q-1-3-2-1zm13 0-3 7 2 3v-2l1-3 2 1-1 2h2q1-4-1-3zm8 0-2 2h3q1-3-1-2Zm16 0-2 3 4-1zm10 0-1 3h1zm-60 1v2l2-1zm42 0 1 2h1zm14 0q-2 3 1 2zm-46 1q-3 2 0 3 3-1 0-3Zm9 0v1h2zm-21 1-2 2 1 1 2-1zm16 0v3l2-1q1-3-2-2Zm34 0-2 3 2-1zm-27 1v4q-1 2 2 1zm19 0-1 2-2 1h3zm18 0v2l2-1zm6 0-2 4 2-1zm-62 1-2 2 2 1zm16 0q-2 3 1 2zm39 0-1 3h1zm-59 1v2q-1 2 2 1l-1-1q1-3-1-2Zm35 0-2 3 4-2zm9 0 1 2 3-1zm24 0-1 3h1zm-57 1-3 2h3zm5 0-2 2h2zm37 0-1 3h1zm1 0v2q2 3 3 0zm7 0-2 2q2 3 4-1zm-22 1 1 1 1 1q1-3-2-2Zm10 0-1 2 2 1zm15 0-2 2 1 2h1zm-29 1v1h2zm22 0q-1 3 2 2 1-3-2-2Zm-52 1 1 2q1-3-1-2Zm12 0-2 3h3zm8 0-1 3q-3-1-2 2l4-1v-2zm2 0v2l2-1zm10 0q1 4-2 3v6h3v-2l-2-1q-1-3 2-2h2q2-1 1 2l-2 1h5v-1q-4 1-2-4h-1q1 2-2 1v-1q1-3-2-2Zm10 0q-2 3 1 2zm-38 1-1 2q2-1 1 2h2zm20 0-1 3h2l1-2zm31 0 1 4 1-3zm8 0v3h1q1-4-1-3Zm-55 1 1 2q1-3-1-2Zm21 0-2 3 2-1zm11 0-2 2 1 1 2-1q1-3-1-2Zm11 0 1 2 2-1zm-35 2-3 2 2 2 1-2zm29 0 1 2q1-3-1-2Zm13 0-2 2 1 4 3-2-2-1zm-56 1 1 6h2l-1-4h3zm6 0v1h2zm12 1q-5 2-1 4v-2h3zm23 0-2 2h2l-1 2 3 3v-4zm8 0v8l2-1-1 2h2l-1 2 4 1 2-3 1 2v-3h-3q1 3-2 2 0-7-4-10Zm-24 1 1 3q2 1 1-2zm26 0v2l2-1zm12 0-1 3h1zm-52 1q0 3-2 2v1q5-2 4 3h1q2-6-3-4zm10 0 2 3q2 1 1-1zm15 0-2 2h2l1 1zm18 1q-3 4 2 3l1 1v-3l-3 1zm-48 1-1 3 3 2-1 3 2-1q3 1 1-4h-1l-3-1zm10 0v5l2-1zm2 0v1h3zm22 1-4 1 1 3v-2l5 1-1-1q1-3-1-2Zm20 1v2l2-1zm-37 1-2 2 1 2v-2l3-1zm23 0q-3 1-2 5l2 1-1-2 1-2zm2 0-1 3h1zm-17 1v1h3zm-15 1-3 5q-2 1 1 2l2-5zm2 0q0 4 2 1zm10 0v5l2-3zm21 1q-2 3 1 2zm-17 1v1q2-1 1 2v1l2-1 1 2v-2l5 3h2l-4-4zm28 0-2 2 1 3-1 2 2-1q2 1 1-1v-2zm-43 1-2 3 1 2 1-2zm34 0-1 2q-2 1 1 2v-1q2-2 0-3Zm2 0 1 2h1zm13 0q0 3-2 2v2l-2 1 3 1 1-3zm-47 1 1 2h1zm3 0q-1 2 2 1l1 2 1-2zm5 1v4h1zm3 1v5h1q1-4-1-5Zm17 0v3l2-1q1-3-2-2Zm7 0v1h2zm-32 1v2l2-1zm16 0-2 1v1l3-1zm19 0-1 4 2-1zm-31 1-3 2h3zm-5 1-2 2h3zm14 0q-3 5 2 3l1 2 1-2zm26 0 3 3v-2zm-28 1-1 2-2 1q2 3 3 0zm18 0v2l2-1zm7 0v2l2 1q1-4-2-3Zm-34 1v1h2zm24 0-1 3h1zm5 0q-1 3 2 2 1-3-2-2Zm-4 1v2l2 1q1-4-2-3Zm-21 1q-2 3 1 2zm13 0-1 3h1zm3 0-2 2 1 1 4-1zm12 0v2l1 1-3 3q-1 2 2 1l3-4 2 1-1-2q-3 1-2-2zm-24 1v2h4v-1h-1zm6 1-1 2 3 1zm24 0 1 4h1q1-5-2-4Zm5 0-2 2h2zm-42 1-1 3q-2 1 1 2v-2h2l-2-1zm22 0v2l2-1zm24 1-1 3 2 1zm-42 1v3q3-1 0-3Zm15 0v3q2 1 1-1h1q-1 3 4 1v-1q-4 1-3-2zm16 0-1 2 2 1zm-30 3v2l-1 2 3-2q1-3-2-2Zm31 0 1 2 4-1zm12 0-2 2h2zm-30 1v1h2zm8 0-2 3 3-2zm9 2v2l2-1zm-3 1-2 3 2-1zm15 0-5 2h2l3 1q3-1 0-3Zm-32 1q-1 3 2 2 1-3-2-2Zm20 1-1 3h1zm-22 1-1 3h1zm5 0-2 1v1l3-1zm14 0q-2 3 1 2zm2 2-2 2h2zm9 0-1 3h1zm-15 2v2l2-1zm27 2 1 6h1zm-27 1-1 2h3zm9 0-2 2 2 2 1-3zm14 0-1 3v1q2 1 1-2h3zm-28 1v1q2-1 1 2h1q1-4-2-3Zm6 3 1 1 1 1q1-3-2-2Zm20 0-2 2 5 1v-2h-1zm-12 1 2 2h2zm-4 1-2 2 3 1v-2zm28 2v3q3-1 0-3Zm-21 2q-1 3 2 2 1-3-2-2Zm13 0-1 3h1zm-4 3 2 2h1zm8 1-1 4-2 1h3l2-4zm3 2v3q3-1 0-3Zm9 1q-2 3 1 2zm3 5q-1 3 2 2 1-3-2-2Z" opacity=".996"/><path fill="#e52914" stroke="#e52914" d="m147.5 86 .5 2 2 .5-1.5.5zm-16 1 .5 2 3 1.5h-3zm11 0-2 3zm3 0 1.5 3.5-2-1zm9 2 1.5 3.5-2-1zm-17 1 .5 3-3-.5 2-.5zm5 0-1 2zm94 0-1 2-4 2 1-2zm-73 2-1 2zm-18 2 .5 1.5-2.5 1.5v-1q2.5.7 2-2Zm3 0 1 2-2.5-.5zm7 0 2.5 1q1 3-2 2l-.5-2-.5 3 2 .5-1.5.5-1.5-3.5zm-7 3 1 2zm-10 3v2l1.5.5-4 .5q-1.1-2.7 1.5-2zm8 0q2.2 4.3 4.5 2.5l-1 2 1 3-.5 1.5 1.5.5-1.5.5q-2.8-1.2-.5-2.5zm12 0q2.3-.7 1.5 1.5l-1.5-.5-3.5 2.5zm-14 1 2 3zm-15 1 2.5 1.5-1.5.5zm33 1 3.5 4.5-3.5-2.5-1.5.5zm-37 1 2 1 1.5-.5q-.7 2.3 1.5 1.5l3.5-1 .5 2 1-3 2.5 1.5.5-1.5h2l1.5.5-2 .5-1.5 4-1-2-1.5 3 2 .5-.5 2.5-4 2q-1.1-2.7-4.5-2l-.5 2-1.5-.5q.8 2.3-1.5 1.5l-1.5.5q-.7-2.2 1.5-1.5l2.5-2.5-1-3-.5-1.5-1 3-2-3-2.5-1.5zm.5 1-2 2q-1 2 2 1zm5 2-1 4h1zm3 0-2 2 1 2h1zm2 3-1 2-2 1q2 3 3 0z" opacity=".996"/><path fill="#e52914" stroke="#e52914" d="m143.5 107 .5 2 3.5-2v4l2.5.5-4 .5q1.1-2.7-1.5-2v2l-2-1-1.5.5 3-2-3-1zm9 0 3.5 1-.5 2zm5 0 2.5 1.5-1.5-.5zm19 2-1 2zm-18 1-1 2zm-5 2 1 2-2.5-.5zm-48 1 2.5.5-3 1.5zm36 0 1.5 2.5-2-1zm7 0q2.3-.7 1.5 1.5z" opacity=".996"/><path fill="#e52914" stroke="#e52914" d="M156.5 113q2.3-.7 1.5 1.5l1 2.5 2 .5-3 2-.5 1.5-.5-1.5q3.5-1.5 1-3l-.5-1.5q-4.3 1.7-1.5 3.5.8 2.3-1.5 1.5l-2-1 .5 1.5q.8 2.3-1.5 1.5l-.5-2.5 2-2-1.5-1.5-2 1v-1l2-1h2l3.5-.5zm7 0-1 2zm-24 1 .5 2.5h-1zm4.5 1q3-1 2 2-3 1-2-2Zm21.5 0 1.5 2.5-2.5.5.5-1.5zm5 1 1 2zm-29.5 1 2 .5-2 1zm-1.5 2 1 2q-2.8.7-1-2Zm21 0-1 2zm23 0-1 2-1.5-.5z" opacity=".996"/><path fill="#e52914" stroke="#e52914" d="m155.5 121 1 2q-2.8.7-1-2Zm10 0 .5 1.5-2.5 1.5zm6 1 .5 1.5v2l-1.5 2.5.5-1.5-.5-1.5-3 3-1-1q-2.2.8-1.5-1.5l2.5 1.5 2.5-2.5zm2 0 1 2zm9 0-1 2z" opacity=".996"/><path fill="#e52914" stroke="#e52914" d="m151.5 123 2.5.5q-2.1 3.3-2.5-.5Zm4 2 2.5.5-3.5 1.5zm6 0 3 4-1.5-.5-.5 1.5zm14 0-1 2-1.5-.5zm7 0 1 2z" opacity=".996"/><path fill="#e52914" stroke="#e52914" d="M149.5 126q4.4-1.5 3.5 1.5l.5 1.5-4-2zm7 1 1.5 2.5-2-1zm19 1 3.5 3.5-1.5 1.5.5-1.5zm-9 1v3q-3-1.5 0-3Zm3 0-1 2zm2 1q2.3-.7 1.5 1.5l-3 1.5-1 3.5h2q-1.5 3-3 0l2.5-4.5 1.5-.5zm-31.5 1 2 .5-1.5 2.5 1.5.5-.5 1.5q2.3-.7 1.5 1.5l-3 2 1.5-2.5q-2.6.8-1.5-2.5zm34.5 1 1 2zm-9 7-.5 1.5-.5 1.5-.5-1.5zm-3 2-.5 1.5.5 1.5 1.5-.5-3 1.5zm-6 2q2.8 1.3.5 2.5l.5 1.5 3-1 2.5.5-1 3 1.5 2.5-2.5-1.5q.8 2.3-1.5 1.5l-1-2q1.3 2.3 2.5-.5l-.5-2.5-2 2-2-2-2.5.5-.5 3.5q-2.7-1.2-.5-2.5l1.5-2.5 1.5.5-1-2zm9 0 .5 2.5h-1zm-24 1 1 2zm-2 1q3 1.5 0 3z" opacity=".996"/><path fill="#e52914" stroke="#e52914" d="m148.5 148 2.5 1.5q1.1 3.3-1.5 2.5v2l-2.5-1.5 2-1-.5-1.5 1.5.5q.8-2.2-1.5-1.5zm-19 3 1 2q-2.8.7-1-2Zm27 1 3.5 1-1.5 3v-2q-4 1-2-2Zm-102 47 1.5 2.5-2 .5z" opacity=".996"/><path fill="#eb2f17" stroke="#eb2f17" d="m224.5 47 2.5.5-2.5.5zm-42 9 .5 2q2.7-1.1 2 1.5l-3 1q.8 2.3-1.5 1.5-1.2-2.2-2.5.5l2.5 1.5 1.5-.5 1 2-1 2.5q3.7-1.3 2 4.5l1.5-.5 1.5-.5-2-.5 1-2.5-2-3h3l-1 2.5 3 .5-3 1 2.5 1.5 1.5-.5-.5 1.5q2.3-.7 1.5 1.5l-2 3 1.5.5 3-4 3 2h2l1.5.5-1.5.5-3.5-.5 1 3.5q4.1-1.3 3 2h4v3.5h-1q1.3-3.7-2.5-2.5h-2l-2.5-.5 3-1-3-.5q1.5-3.8-1.5-3v2l-3-1-1 2 3 1 1.5-.5v2l.5 3.5.5-3q3.7-1.5 3 1.5l4 1.5-.5 2-3-1-1.5 1.5 2.5 3.5.5-1.5-.5-1.5h2q2.3-.7 1.5 1.5h1q-1.1-3.3 1.5-2.5l1.5-.5-2 3 2 4h-1l-1.5-2.5-.5 1.5 1.5 3.5 2-1 5.5 4.5-.5 4.5-.5-2-2 .5q2.8 1.7-1.5 3.5l-1.5.5.5 1.5-1.5-.5-3.5 4.5-1.5-.5-10.5 11.5-4.5 3.5-2 3 .5 1.5-1-1-3.5 3.5-2 3 .5 1.5q-1.7-2.7-3.5 1.5l-1 2 .5 1.5q-1.7-2.8-3.5 1.5l1 2-3 1-5 8 .5 1.5-1.5-3-2 .5 3 4-5 1 1 3-7 11v3l-3 5 .5 1.5-1.5-.5-.5 2.5-2.5-1v2q2.7-1.1 2 1.5l-2.5 3.5q1.6-1.7-1.5-3.5l-.5-1.5-1 2h-2l-2-1-1.5 2.5 1.5.5 1.5-.5-.5 1.5 2.5 1.5q-.8 3 3 1.5v2l-4.5-3-2 1-2-4q.3 4.3-2.5 5.5l.5 1.5q-1.2-2.2-2.5.5l-1 3h2q-1.5 3-3 0l2-6-1-2 .5-1.5-4 1-2.5-4.5h2l-2.5-4.5-1.5 3.5 1 2-3 1 .5 1.5-1.5-.5-1 3 2.5-1.5q3.3 1.1 2.5-1.5h1l-1 3q3.1 1.8 1.5 3.5l2.5-.5-.5-2.5-1.5-.5 2.5-.5 1.5 2.5q-3.5 1.5-1 3 .9 3-3.5 1.5v2l-1.5-.5.5 4.5 2-1v1l-1.5.5 1 3-2 2-.5 1.5q-3.7-2-2-4l-2.5 1.5 1.5 2.5-5-4-1 2q4-.5 4.5 2.5l.5 1.5 2-1h2l2.5-.5-.5-1.5q2.3-.7 1.5 1.5l2-1q-3.5-1.5-1-3l-1-2 3-1.5-.5-2q-1.2 2.3-2.5-.5l1.5-2.5 3.5 2 1 4-2 .5 2.5 1.5 1-3 3.5 2.5q.8 2.3-1.5 1.5l-1 2 1.5.5-2 3q2.3 1.3-.5 2.5l-3.5-5.5 2-1-3-.5-1 2.5 3.5 4.5-2-1-.5 1.5.5 1.5-1.5-.5-2 6.5q-3-1-2 2l4.5-2-1.5 2.5q.8 2.3-1.5 1.5-1.7-3.8-3.5-.5l2 1-3 1 .5 1.5-4.5 1 .5 2h2l1.5-.5-.5-1.5q3-.9 1.5 3.5h2v2l2 4-2.5.5q-2.7-1.2-.5-2.5l-1.5-3.5-3-1-1.5.5q.8-2.2-1.5-1.5v-2l-2-1-1.5 2.5 1 4.5-2-.5q2.3-1.2-.5-2.5-3.3 1.1-2.5-1.5h-1l-2 3 1.5-.5 3.5 1.5-1.5-.5-1.5.5.5 1.5q-1.2-2.2-2.5.5l-1 3 .5 1.5-4-2-1 2-1-3-5.5 1-.5-2q-1.8 2.7-3.5-1.5l1.5.5 2-1q1.8 3.8 3.5.5l-2-.5v-2q-2.7 1.1-2-1.5l-2.5-3.5 2 1-1-2-1.5-.5 2-1-1-2.5-3-.5 2-.5-.5-2-3 2-1-2-1.5 3 4 2.5-1.5 2.5-2-1v2q-2.2.8-1.5-1.5l-2 1-1 2 .5 1.5-2-1 .5 1.5q.8 3.8-1.5 4.5l-2-1-2.5.5 1.5 2.5 1.5-.5-1 3 2.5 2.5.5-1.5-1-2 2-1-1 2h2l-2.5 5.5-3.5-5.5 1-1-3-3 1-5-4.5-3.5 1 3-1.5-.5 1 3h-1l-.5-1.5-1.5.5 1-2h-2l1.5-2.5-1.5-.5.5-1.5q-2.6.7-1.5-2l4 1.5-1 2 2.5-1.5h3l5 4 2.5-1.5q-1.2-2.7-2.5-.5-2.2.8-1.5-1.5v-2l-.5-1.5-2 1v-1l1.5-.5-3.5-1.5-1.5.5 2 3h-1l-2-4.5 2.5-1 1 2 1-3q2.7 1.3.5 2.5l3 3-1 2q1.3 2.7 2.5.5 2.3.8 1.5-1.5l.5-2.5q2.3-.7 1.5 1.5l1.5 2.5 1-2 1.5.5V230h-3q1.1-2.7-1.5-2l-1.5-3 4 2 1.5-3 .5 2 3-.5-.5-1.5 3 2 1.5-2.5-1.5-2.5-1 2-2-1-2 1h-2l-2 1h-2q-3.4-.9-1.5 4.5l-1.5-.5-1.5-.5v-2l.5-1.5 1 2 .5-2.5q-1.2-2.7-2.5-.5l-3-1-5 3v-3l1.5.5q.8-2.6-2.5-1.5l-1.5.5.5-2.5h4l1.5.5-2 1q1.3 2.8 2.5.5l1.5-.5v-2l.5-3.5.5 6q3 1.3 2-2.5l-.5-1.5 1.5.5-1-2h3l-.5 1.5 1.5.5-3 .5.5 4 1.5-.5-.5 1.5 2.5-.5-2-3h2l1.5-2.5-.5 1.5-1 3 1.5.5 3.5-1.5.5-1.5 2 2 3-1q3.3-1.1 2.5 1.5l2.5-1.5 2.5-.5-.5-1.5 1.5 1.5-.5 2.5-3-1v1l1.5.5-2 1-.5-1.5-1.5 1.5q3.5 1.5 1 3v2.5q-3.7-1.5-3 1.5h2v2q-1.1 3.3 1.5 2.5l-.5-1.5.5-1.5 3 4q2.8-.6 1.5 5.5-2.2 1.3.5 2.5l3-1 1.5.5 1-3-2.5 1.5-2.5-1.5 1.5-2.5q-2.2.8-1.5-1.5l3.5 2.5 1.5-1.5-5.5-6.5q-2.6-.8-1.5 2.5h-1l1-3-3-2 3-2-2-1 3-2-1 2 2-1 2-3-2-.5 1-2.5-2-1 1.5-.5h2l2.5.5-2 .5 1 2.5-6 7v2.5l2-.5-.5-1.5 2.5.5-1 2h2l.5 1.5q2.8-1.2.5-2.5l-1-6 2-1-.5 1.5 1.5.5-1 2 2.5 1.5-.5-1.5 1-3-.5-1.5 1.5 2.5-1 2.5 3.5 1 1.5-2.5-2-1-.5 1.5-.5-1.5v-2l-1.5-2.5q-2.6.8-1.5-2.5h1l3.5 4.5 1.5-3.5-2-4 1.5.5 1.5-.5-1-2.5-3.5-1v2l-2.5-.5q-.7-2.2 1.5-1.5v-2l2 1-2-3-2.5 1.5 2.5-5.5 3-1-1.5 2.5 1.5 1.5 3.5-1.5-5-7.5-3.5-1-.5 1.5 4 3q.8 2.6-2.5 1.5l-3 4-1.5-.5 1 2-2 5 2 3-2-1-1.5-2.5-1 2q2.3-.7 1.5 1.5l-5-3-.5 1.5-1.5-2.5 2.5-3.5-.5 1.5q-.7 2.3 1.5 1.5l2.5-1.5-1.5-2.5 3 2-1.5-2.5-.5-1.5-3 2 2-3 2 1 2.5-.5.5-1.5 1.5.5.5-3.5 1 2 2.5-1.5-5.5-2.5-1.5 1.5 1.5 2.5-3 1-1.5-3.5 4-2-2-1 1.5-.5 2 1 1.5-3.5-1.5.5-2 1 1-2 1.5-.5-2.5-.5-1.5.5q2.8-1.8-1.5-3.5l-2 4-1-2-1.5.5 4-3-3-1 3-1q-1.3-2.7-2.5-.5l-1.5-.5 4.5-2.5 1 3 2-1 2.5 1.5-1 3.5h2q-1.1 2.7 1.5 2l2.5 1v3.5l2 3.5 2-.5-.5-1.5h4l2-1 .5 1.5-6 2 .5 1.5q1.3-2.2 2.5.5-2.2 1.3.5 2.5l4.5-3.5-.5-1.5-1.5.5 3-5-1.5-.5-4 1q-1.5-2.5-3 1l-1.5-.5 2-1-1-2 6-4-.5-1.5 1.5.5 1-2-2-3 3-1q.9-3-3.5-1.5v-1l3.5-.5-.5-2.5-1.5-.5 2-.5-1.5-3-2.5 4.5 2 1-1.5.5-4.5-2q-1-3 2-2l.5 2 .5-2 2-.5-2.5-1.5-2 1-1.5-.5q.8 2.3-1.5 1.5l2 4-4-3-2 4-1.5-6-4-2.5q.8-2.2-1.5-1.5l.5 1.5 2.5 3.5q3.4-.9 1.5 4.5l1 2.5-2 .5 4.5 2.5.5-2-2-.5 4.5-.5 2 1-2-3-2.5 1 .5-3 1 2q1.5-2.5 3 1l2-1-.5 1.5q-.7 2.3 1.5 1.5l1.5-.5-.5 2.5-1.5.5.5 1.5-1.5.5 2 .5-.5 2-3.5-1.5-.5-1.5-2.5 5-4-1 1.5-3 1 3q2.8-1.2.5-2.5-.8-2.6 2.5-1.5h2l1.5-.5v-2l-.5-1.5-2.5 1.5q.7-2.6-2-1.5 1.5 3.8-1.5 3l-1.5-.5-2.5 3.5 1.5-2.5-1.5-1.5q-2.2.8-1.5-1.5l-1-3.5-2 .5 1 2h-1q.8-2.2-1.5-1.5l-2.5.5-1.5 2.5v-2q-2.2.8-1.5-1.5 1.3-2.7 2.5-.5l3.5-1.5-5-1 5-1-.5-1.5 1.5 4h2q-1.1-2.7 1.5-2l-1-2-1.5.5-.5-2.5-3 1q-2.7-1.2-.5-2.5l1.5-2.5q2.6.8 1.5-2.5l1.5.5 3.5.5-3 .5.5 2 1.5-.5-1 2.5 2.5 1 3.5-1.5-.5-1.5 2-1q1.5 3.5 3 1 2.3.8 1.5-1.5l2-3-.5-1.5q1.5 3.5 3 1l2-1 2.5 1-3.5 5-2-1-2.5 1.5 4 2.5q-1.1-2.7 1.5-2 1.7-3.1 3.5-1.5l1-4-3.5-6.5-1 2-2-1v2l-1.5.5.5 1.5q-1.7-3.1-3.5-1.5l-.5-1.5-.5 3.5 1 2-2 1 1-2-2-1-1.5 2.5-4-2-3 1q-1.5-3.5-3-1l-3.5-1-2-4.5 2-.5 1.5 3 2.5-3.5-4-1 4-.5 2-4.5v-2l1.5-3.5 2 3q2.7-1.2.5-2.5l-.5-2.5-3.5 1.5-2.5 3.5-2.5-1-2-4 2-.5-2.5-1.5-2 6-.5-1.5q2.3-1.3-.5-2.5l-1.5-.5 4-1.5-.5-2-2.5 1q1.1-2.7-1.5-2l.5 1.5-2 3 1 2-2 1-.5-3.5-1 1-2.5-1.5-1 4 1 3.5q2.7 1.1 2-1.5l-1-2 2-1-1 2 3.5 1.5 2.5-1.5-1 2.5-2 .5 3 .5q-1.1-2.7 1.5-2l2.5 1.5-1.5.5-1.5-.5q-.9 3 3.5 1.5l4-2-1 2-6.5 1.5 3 2-2 1-.5-1.5q-1.2 2.3-2.5-.5l1.5-2.5-6.5 1.5q2.5 1.5-1 3l-1.5 2.5-1.5-.5 2-1-.5-1.5 1.5-.5-2-1 3-2-2.5-.5-2.5 3.5q.6 5.4-1 7.5l3 1.5q-2.3 2.4-7 1.5l-1-2.5 1.5.5 4 1-1-2-3.5-1.5.5-1.5-2.5-.5 3-.5-1.5-3-.5 2-4.5-1h-2l-1.5.5 1 2-1.5-.5-1.5-.5 4-3-2-1 5.5-9.5.5 1.5-2 3 3 1.5 1.5-3 2 1q3.3-1.7-.5-3.5-.7-2.6 2-1.5v-2l-2.5 1h-2l-1.5-.5 3-3-1-1 5-5-1-1 4.5-4.5v3l-1.5-.5-3 6 .5 1.5-1.5.5 3 5-2 .5 1.5 3 1.5-.5-.5-1.5 1.5-.5-2-3 .5-1.5-1.5-.5 4-1-2-3.5q2.7 1.1 2-1.5l-.5-1.5 2-1h2l1.5.5-2 .5q-1.2 3 2.5 2 1.5 2.5 3-1l4.5 2.5-.5 1.5 2.5-.5-1-3.5-6-1-.5-2-1 3-1-5-3 2v-1q2.3.8 1.5-1.5 1.3-2.7 2.5-.5l2.5-.5-2-3h1l2.5 3.5q2.6.7 1.5-2l-3-1.5-2-4.5q3.4-.7 4.5 2l2.5-1 1-3.5-2-1 .5-2.5 4 3 .5-1.5-2.5-3.5h-2l-2.5 2.5 1 2-.5 1.5q2.6-.7 1.5 2l-4.5-2-1.5.5q-.9-3 3.5-1.5v-1l-1.5-.5 10.5-10.5 2.5 2.5.5 1.5q3.3-1.7-.5-3.5l-1-2 3-1-1-1L119.5 91q2.3.8 1.5-1.5 1.5-3 3 0l-2 1 4 1.5 2-5.5-1-1 3.5-3.5 4 1v-1l-1.5-.5 3-1.5.5-2q1.8 3.8 3.5.5-2.2-1.2.5-2.5l5-1q1.8 3.8 3.5.5l-4-2 5-1q-2.3-1.2.5-2.5l2.5 1 1.5-3v2q3 .7 1.5-3h4q-1.1-2.7 1.5-2h2q3.8 1.3 2.5-2.5l1.5.5 6-2 1.5.5 1.5-3.5 1 2 4.5-2.5zm-5.5 8-2 2h3q1-3-1-2Zm3 6-1 3h1zm8 2-2 2h2q1 2 2 0zm-5 2 1 2q1-3-1-2Zm5 3-3 2h2l1 1zm-52 4v2l2-1zm0 2-2 2 2 1zm61 1v3q3-1 0-3Zm-67 1-2 4 2-1zm16 2-1 3 2 1zm-14 2v2l2-1zm23 0-1 3h1zm-17 1-1 2-2 1h3zm64 0-2 5h2l1-2zm-80 1-2 2 3 3 2-1-1-1zm5 2q-2 3 1 2zm4 1-2 2h2l-1 3 2-1zm4 0 1 1 2 3 2-1v-1q-4 1-3-2zm14 0-2 2h3zm-32 1-2 2h2l-1 2-2-1-3 3v2h4l-1-2 5-2 1-2zm38 0-1 3h1zm1 0q-1 3 2 2 1-3-2-2Zm-33 2 1 4 2-1v-1zm10 1-1 2q2 3 3 0zm-5 1q-2 3 1 2zm13 0-1 2 3 2zm-22 1q-2 3 1 2zm40 0 1 2q1-3-1-2Zm-23 1v2h4zm-16 1v2l2-1zm-9 1-2 2 1 1 3-1zm52 0-1 2 2 1zm-34 1-3 1 1 3v-1h1l-1 3 2-1v3l-2 2 2 1v-2q3-1 5 2h1l-5-4 1-4v4q3 1 2-1l-1-3h2v-2l-5 1zm7 0-3 8h2l1-3 1-3zm3 0v3l-1 2 2-1zm12 1-1 3h1zm-38 1v2l-3 1 3 3q2-1 0-2h2q-1-3 2-2l2 1q-1 2 2 1l1 1q1-3-2-2v-3h-1l-3 1zm9 0 2 2q1-3-2-2Zm-17 1-2 3 2-1-1 2q-1 2 3 1 1-4-2-5Zm39 0-3 2h3zm-19 1v3h1q1-4-1-3Zm30 0 1 2q1-3-1-2Zm-45 1-2 2q3 1 1 3l3 1h1zm9 1-4 2 4 1h3l-3-1zm5 0-1 3h1zm12 0q-2 4 2 3v-2zm11 0-1 2h4zm-33 2v3l2 1h-2l1 2 3-2 1 2 2-1zm-8 1q-2 3 1 2zm43 0 1 2q1-3-1-2Zm8 0 1 2q1-3-1-2Zm-35 1q-2 3 1 2zm5 0-3 1 1 2 2-1zm13 0-1 3h1zm-10 1v2l-2 1h5l-1-1q1-3-2-2Zm7 0-2 2h2zm7 0q-1 3 2 2 1-3-2-2Zm10 0 1 1q1 2 2 0zm12 0-1 2v1h2zm-60 1-2 3-2 1 5 1-1 2 2 2v-4h2l-1-1v-2q-3-1-2 2l-2-1 2-1zm32 1-2 3h2zm3 0v2l2-1zm13 0-1 2 2-1zm-32 1 2 2 2-1zm6 0-2 2h2zm22 0-1 3h1zm6 0-2 2h2zm-45 1-2 4 2 3 5-1q1-4 3-1h1q-2-5-3-2-3-1-2 2l-1-1-3 1 2-3q1-3-2-2Zm3 0v2l2-1zm4 0v2l3-1zm12 0-2 3-1 2 2-1v3l-2 3 1 1q3-1 2-4l1-3-1-1zm10 0q-2 3 1 2zm-14 1v3q3-1 0-3Zm27 0-2 2h2zm-10 1-2 2h2l1 4h-2l1 2 5-1-3-2q1-4-2-5Zm2 0v2l2-1 2 1h1q-1-3-5-2Zm11 0q-2 3 1 2zm10 0-2 3 2-1zm-67 1-2 2 1 1 2-1q1-3-1-2Zm23 0v2l2-1zm11 0-2 2 2 1zm39 0-2 3 2-1zm-70 1 1 2q1-3-1-2Zm3 0q-2 3 1 2zm32 0-2 3 2-1zm-19 1-2 3 3 2zm-11 1-1 1q-3-1-2 2h3zm20 0 1 2q1-3-1-2Zm7 0-1 1q-3-1-2 3h4l-3-1 3-1zm4 0-2 4q-1 2 2 1 1 2 2 0l-2-1 4-2v-2l-3 2zm18 0v1h2zm10 0q-2 3 1 2zm-64 1v2l-1 2q1 2 3 0l2 2-1-1-2 3-1-2-2-2v-1q2 1 1-1h-1q-4-1-2 3l2 1-2 1 4 2q3-1 2 3h-1q1-3-1-2v2l2 3 2-1-1-4v-2l2-1-1 3 2 2 1-3-2-5-4-2q1-3-1-2Zm8 0q-5 2-1 4h2l-1-1zm5 0q0 3-2 2h-2l2 3-1-1-3 4 2-1 1 1h-2l4 6q2 1 1-1l1-4-3 1v-1q-1-4 2-3l-1-2h2zm35 0q-1 2 2 1l1 1q1-4-3-2Zm13 0v4-1q2-2 0-3Zm-39 1-2 2h4q1-3-2-2Zm-30 2v2l3 1v-2zm26 0v2q-1 2 2 1v3l3-1-2-1 1-2h-2q1-3-2-2Zm23 0 1 3 2-1zm9 0v4-1q2-2 0-3Zm20 1 1 2q1-3-1-2Zm-55 1v4l1 3 5 2h1l-3-2 2-1 1 1 2-1-1 2q2 3 3 0l-1-4-7 2-1-2q1-5-2-4Zm9 0-1 2h3zm14 0v2l2-1zm15 0-1 5 2-1zm2 0v3q3-1 0-3Zm6 0-1 1q-3-1-2 2l2-1 1 2 1-3zm-47 1q-2 3 1 2zm14 0-1 2 2-1zm3 0-1 2 3 3 1-2q3 2 2 4 2 1 1-2zm13 1v2h3zm-58 1-2 4 3-1zm42 0v2h-2l2 2 2-1 1 1q1-3-1-2v-1zm10 0q-2 4 2 3l1 1q1-3-1-2v-1zm12 0-3 4 2-1 1 2v-1h2q1-3-2-2zm5 0q1 3-1 2l1 2 2-1v-2zm-62 1-3 4h2l1-2 2 1zm51 0-2 2h2zm16 0-2 2h2zm1 0q-1 3 2 2 1-3-2-2Zm-71 1-2 2h2zm55 1-3 1-1 3 1 1 2-1-1-1h2l1-2zm-58 1v2l-1 4h1q-1-3 3-2l-2-2q1-3-1-2Zm22 0-3 1q-3 6-5 1l-3 1 4 3-2 1 3 1 2-4 2 1h-2l1 2 4-2zm20 0 1 2q1-3-1-2Zm18 0q-3 6 1 5zm-51 1q-2 3 1 2zm30 0-1 4h2l1-3zm-41 1-2 3 2-1zm29 0-3 2q2 3 4-1zm9 0 1 4 1-2zm8 0-1 3-1 2 2-1 2 1v-2h-2l3-1zm4 0-1 3h2l1-2zm-37 1-2 2 4 1zm21 0-3 5v3h1v-2h4v-2l-2 1 1-2q3 1 2-1h-1v-1zm18 0v2h4zm-22 1-3 5 2-1-1 2 1 1 1-3zm45 0-1 3h2zm-5 1-2 2 2 2v-1q2-2 0-3Zm9 0-1 3h1zm-39 1-3 2h2v2q2 1 1-1 2-2 0-3Zm11 0-4 5h2q1 2 2 0zm-37 1-1 2h3zm29 0-2 2 1 3h1zm3 0-2 2 1 2 2-3zm7 0v3q3-1 0-3Zm7 0-3 1 2 3v-1l3-2zm-36 1-1 2q2 1-1 3h2q1-2 3 1 2 1 1-2h-1v-1zm48 0q0 4 2 1zm-5 1-2 3 2 1zm8 0-1 3h1zm-40 1-2 1v2l-1-1-1 2-1-1 1-2h-2v4l4-1 1 2 2-4v3l-1 1 2 2-2-1-3 1v-1l-5-2q-3 2 0 3l1-2v4l1 1 5-3 2 3v-2l6 1v-1q-1-3-2-1h-2l1-2h2v-6l-3 1 1 3-1 2h-1l1-2-1-3zm42 0 1 2q1-3-1-2Zm-81 1-2 1v1q3-1 2 2h2zm56 0-2 2h2l1 1zm2 0 1 1q1 2 2 0zm6 0-4 3 3 2-1-2 2-1zm4 0-2 3h2zm-73 1-1 2q2 3 3 0zm29 0-2 2 4 3-1 2v-1q1-3-1-2l-4 4 1 2q3-1 2 2l3 1-2-2 3 1 1-1q2 1 1-2h2v-1l-3-2 1 2q-2 4-4 1l3-5v-2h-3q1-3-1-2Zm29 0-1 3h1zm25 0-2 2h2zm-31 1q-2 3 1 2zm3 0-1 3h2zm-61 1-1 3 1 2h2l-1-2h2v-1zm8 0-2 4 3 4q2-1 0-2l1-2v-2q1-3-2-2Zm9 0v1h2zm49 0-3 3v2l3 1-1-1h3l-3-2 2-1q1 2 2 0zm10 0 1 2h1zm5 0-3 4q2 4 4 1zm4 0-1 2 4 1v-2zm-14 1-2 2 1 2 1-2zm-14 1 1 2q1-3-1-2Zm15 1 3 3v-1zm4 0 2 3h1zm8 0-1 2q-2 1 1 2l2-1 2 1q1-4-4-2zm-22 2q-4 2 0 4l-3 1 4 1q2-1 0-2l3 1v-1l-4-2zm10 0-3 3 1 1 3-1zm-4 1-1 3h1zm12 0-3 2 4 1-1 2q2 3 3 0zm-37 1-2 2h2zm5 0-3 2h3zm10 0q-2 3 1 2zm28 0-3 2 2 1-4 6h2l1-3h2zm-12 1-3 2 3 1 1-2zm-66 1v2l2-1zm23 0q-3 2 0 3 3-1 0-3Zm10 0-1 2-1-1q-4 2 1 4 3 1 1-3h2zm15 0 1 2h1zm-22 1-2 2h2zm33 0-3 2-4-1-3 2 2 4h1l-1-3h4l6-3 1 1q1-3-3-2Zm9 0-1 2q-2 1 1 2v-1q2-2 0-3Zm-8 2-3 3 3 1v-1q2-2 0-3Zm10 0 1 2q1-3-1-2Zm-7 1v2h-2q-1 2 3 1l1-2 1 3 1-2zm9 0v2l2-1zm-29 1-4 1 1 2 4-1zm6 0-1 2 2 1zm6 1-2 2 2 2v-1q2-2 0-3Zm3 1-2 2 1 2 1-2zm3 0q-2 3 1 4 3-2-1-4Zm9 0-1 2 3 1zm3 1 1 1 1 1q1-3-2-2Zm-52 1-1 2 2 1zm25 0-2 4 2 5 4 1-1-1 1-3-2-2v2l-2-3 5 1 2-1q1-5-3-3-2 4-4 0Zm-13 1v2l-1-1-3 4 6-3zm26 0-2 2v2h-5v2h-1v1q3-1 2 2h-2q1 2-2 1l1 2 4-2 1 1-1-2h4l-2-1 1-2q3-2 2-4 2 1 1 5l3-1-1-1v-1l2 1q4 0 4-2l-1-1-2 1 1-2h-1q-4-1-3 2zm11 0v6l2 1-2-4 2-1zm-16 2v1h2zm10 4-4 4h4l1-2q1-3-1-2Zm3 0-1 3v2l-5 1q1 2 3 0l3 1v-1h2l1-3-2 1-1-2h2zm-41 1-2 2 1 2h1zm19 2v1h2zm13 1-3 3-1-2-2 3-7-3q-1 3 3 2v2l2-1v2l2-1 3 1-4 1-2-1 2 3 3-2 3 1-1-1h2l2-1-2-1-1-2 3-2zm1 2v1h2zm5 1 1 3 1-2zm-3 1v1h2zm-39 1-1 3h2l1 1q1-5-2-4Zm32 6-2 2q-1 2 3 1v-2zm-18 1v2l2-1zm-7 1q-2 3 1 2zm15 3 1 4 3-1zm-13 8q-2 3 1 2zm9 0v3l3-2zm-4 1 2 4h2l-1-1q-3-1-1-2zm-2 1v3h1q1-4-1-3Zm15 1 1 4 1-2zm5 5-1 2 2 1zm-18 3v4l-1-1-1 3 2-1 2 7v2h4q2 1 1-1l-2-2-2-2v-2l2 1v-1q2-2 0-3l-1 2q-4 1-3-1v-2q1-4-1-3Zm4 0 1 3 1-2zm5 0-3 2 2 1-3 1h3l1 2v-3q2-2 0-3Zm4 0-3 3q-1 2 3 1l-1-1 2-1zm-2 5-2 2 1 1 2-1zm-13 1q-2 3 1 4l-1 2h3l-1-5zm8 0 2 4h-2q-1 3 3 1l-1-3q1-3-2-2Zm-28 3q-3 2 0 3l1-2zm20 3-4 1v1q3-1 2 2l1 2q2 1 1-2v-2l3 2h-2q-1 3 2 2h2l3-2q-1-3-2-1zm-6 2-3 3v2l2 2q2-1 0-2-1-3 2-2v-2zm2 3q-3 2 0 3 3-1 0-3Zm-39 1 1 1 3 7 2-1 1-3q-4 1-5-2 1-3-2-2Zm40 1v2l2-1zm-17 1 2 3 1-2 2 3v-2q-1-3-5-2Zm10 3-2 2h2zm90.5-173-1 2z" opacity=".996"/><path fill="#eb2f17" stroke="#eb2f17" d="m190.5 67 1 2q-2.8.7-1-2Zm2 4 4.5.5-4.5.5zm9 6 1.5.5-2.5 1.5zm51 6 2.5.5-3.5 1.5zm-5 2-1 2zm-123 2q2.3-.7 1.5 1.5zm88 4 2 3zm-4 2 1 2 2-1v1l-2 1zm5 2h1.5v4h2l.5-2 .5 1.5-2.5 4.5-1.5-2.5v-2zm-122 26v3l-1.5-.5-1 4.5q-3.8 1.5-3-1.5zM90 155l2 .5q-3.7 1.8-.5 3.5l1-2 2.5 1.5-3 .5.5 2 2-1 3.5 5-2.5-1-.5 2q3-1 2 2-2.7-1.1-2 1.5-5.2 2.3-1.5 4.5l2.5-1.5-.5-1.5q2.3-.7 1.5 1.5l-.5 1.5 2.5 1.5h-3l-.5-1.5-3 1-2-1-2.5 1.5.5 1.5-2.5-.5 1-2.5q3.3 1.1 2-3l-2-.5 2.5-.5 2.5 1.5-1.5-2.5-2.5-1.5 3.5-1.5q1.3 2.3 2.5-.5l1-2-2.5-1.5h-2q-2.2-.7-1.5 1.5l-2-1 2-.5 1-2.5-1-2zm5 11-2 2h2zm-21.5-6 3.5 2.5-2 1-1.5-2.5-2.5 1.5.5 1.5-3-1v2l-2.5-1 .5-2h2z" opacity=".996"/><path fill="#eb2f17" stroke="#eb2f17" d="M84.5 161q2.6-.8 1.5 2.5l3 2-1.5.5zm39 1 2.5 1.5-1.5-.5zm-50 1 1.5 2.5-2 1 1 3v4l-4.5 5.5-1.5-3.5 4-1.5 1-4.5h-1l-.5 1.5-2.5-.5-.5-1.5-1 2-.5-1.5q1.3-2.7 2.5-.5l3.5-1.5-1-2zM71 175l-2 2h2zm-6.5-9 3.5.5-3 1q.7 2.6-2 1.5z" opacity=".996"/><path fill="#eb2f17" stroke="#eb2f17" d="M69.5 166q2.3-.7 1.5 1.5zm5.5 1q3-1.2 2 2.5h1l.5-1.5q1.5 3.5 3 1l4-2-1 2-3.5 1.5 2 3-1.5-.5-1.5.5 6 4.5 1.5 4 1.5-1.5-1.5-2.5q2.3-.7 1.5 1.5l2.5 1.5-1-3q2.3.8 1.5-1.5l1.5.5q2.3-.7 1.5 1.5-3.5 1.5-1 3l1 3q-4.2 2.3-2.5 4.5l-1-1-4.5 2.5 1.5 2.5q-2.2.8-1.5-1.5l-2.5 1.5-1.5-.5 2-1-2.5-.5-1.5 3.5-.5 1.5q-1.2-2.2-2.5.5l3 2-1 2 2 .5-.5 2-3.5-2.5 2-.5-.5-2-1.5.5-2-5 6-3-2-1 1-2.5 2 .5q-2.2 1.3.5 2.5l2.5-1.5-1 2 2-1q-.8-2.6 2.5-1.5l1.5-2.5-3.5-2.5.5 1.5 1 2-2 .5-.5-2-3 1v-2l-2-1-4 8-1-3-2 1-1.5-.5 2 4.5-2 .5 2 .5 2 7.5h-1q1.5-4.4-1.5-3.5l-4 2 3.5-4.5-1.5-1.5-1.5.5q-.7-2.2 1.5-1.5 3-1.5 0-3l-1 2-.5-1.5.5-1.5-2.5 1.5.5 1.5-1.5-3-2 .5.5 1.5h-2l-2.5-1.5.5-1.5.5 2h2l2-4q-2.7 1.1-2-1.5l-2-1 1 3.5-3.5 1 .5-1.5 2-6.5-2 .5.5 1.5-2.5-1.5 3-6v-2q-.7-2.6 2-1.5l-1 2.5 1 3.5q4.1-1.7 3 2.5l-.5 1.5 4-1 1 1 2.5-1.5-2 4.5-5.5-2q-3 1.5 0 3l1.5-.5-.5-1.5 1 3 3-1 3.5 2.5-2-3q3.1-1.7 1.5-3.5l2.5-.5-2-1 3-.5-1.5-5-.5 2.5.5 1.5h-2l-1.5-.5 3-8zm3 4 1 7 2-1v2q2 1 1-3l-3-1 1-2zm-15 5-2 3h2q3-1 0-3Zm1 2v3l2-1q1-3-2-2Zm20 0-2 2h2l-2 3 4 2 1-2zm-5 1 2 4 1-2zm11 2-1 2 3 1v-2zm-14 2-1 3 2 1h2q1-3-3-2zm3 0 1 2q1-3-1-2Zm1 9-3 3 1 1 3-2zm28.5-25 2.5 1.5-3.5 2.5.5-1.5z" opacity=".996"/><path fill="#eb2f17" stroke="#eb2f17" d="M65.5 171q5 2.5 0 5l.5-1.5zm68 5 2.5.5q-2.1 3.3-2.5-.5Zm-75 7 2.5.5-2.5 4.5-1.5-3 2-.5zm36 4 1.5 1.5-3.5 3.5-2.5-.5 5-3zm-35 2 2 3q-1.8-3.7-3.5-.5l2 1-4.5 2.5-.5-2h2q-1.5-3.7 1.5-3zm55 2-1 2z" opacity=".996"/><path fill="#eb2f17" stroke="#eb2f17" d="m63 192 2 .5q-2.2 1.3.5 2.5l.5-3 4 2.5-1 2 .5 1.5-3-2-1 2 2.5 1.5h-2q-.8 3 3 1.5v2h2.5v-1l-1.5-.5 1.5-.5 1.5.5.5-1.5 1.5 2.5v2l-1 3 2.5 4.5 1.5-2.5-2-4 .5-2.5 1.5.5.5-1.5 1 2q-2.2-.7-1.5 1.5v2l1.5 3.5 1-2 .5 1.5-.5 1.5 3-2v-1l-2.5-1.5 1.5-.5 1.5.5 1.5-2.5 4 2 2.5-2.5q.8-3.7-1.5-4.5l-1 2-.5-1.5.5-1.5-2 1-3-5-1.5.5 1.5 2.5-2.5-.5 1.5-3.5q3.3-1.1 2.5 1.5l1.5-.5 1.5.5-2 .5q-1.3 3.3 3.5 2l-.5-1.5 1.5-3.5 3 1 3 1 2.5-1 .5-2 1.5 2.5-2.5 3.5.5-1.5q.7-2.6-2-1.5 1 3-2 2 1.1-2.7-1.5-2h-2q-2.2-.7-1.5 1.5h2q-3.7 1.8-.5 3.5l5-2-.5 1.5-1 3v2l-.5 3.5q-1.2-2.2-2.5.5l2 1-4 .5-1 5 4.5-1 2.5 4.5h-3l-.5-1.5-1 2-.5-3q-4.7 1-6-2.5l-.5-1.5-1.5.5-.5-1.5-5 3 .5-1.5-.5-1.5-3 2-2.5-.5.5-2.5 1.5.5q.7-2.6-2-1.5v-3.5q2.3-1.2-.5-2.5l-2.5 1 2 4.5-1 2 1 3-2-1 .5-1.5-2.5 1.5.5 1.5-3.5-1 1.5-3 1.5.5 1-7-4-3q1.1-3.3-1.5-2.5v2l-4-1v2l-1.5.5q1.7 4.3 3.5 1.5l3-1-1.5 2.5-1 2q2.5 1.5-1 3l-1 4 3.5 1.5v-1q-2.6.8-1.5-2.5l2 1 1 2-.5 1.5 2 1h2l1.5-.5-.5-1.5 2.5.5-.5 2.5h-2l-2-1-3.5.5V216h-4v-1.5h-1l1 3-.5 1.5q2.3.8 1.5-1.5h1l-1.5 2.5-2.5 1.5 2 1 .5-1.5 2 1 1.5-.5-1 1 1.5 2.5-2-2-2.5.5 1 2-3 2 1.5 2.5q1.3-2.2 2.5.5l-.5 3.5-1-4-2.5 1.5v-2l-.5-1.5-1.5.5-.5-1.5-1 3-1.5-.5 1.5 2.5 5.5 1.5-.5 1.5 1.5.5-1.5 2.5-1-3-1 2-2-3-2 1-1.5-2.5v-2q-1.1-3.3 1.5-2.5 1.5-3.5 3-1l1.5-.5q-1.8-4.2-3.5-1.5l-3.5 1 .5-13 1 4 1-3 1 3 1.5-3.5-1.5-4.5-.5 2-2-.5 4-3-3-2 .5-4.5 2 1-.5-1.5.5-1.5 2.5 1.5-1-3.5 3.5 1-.5-1.5-1-2 1.5.5q2.6-.8 1.5 2.5l1.5-.5q2.3.8 1.5-1.5h-2zm5 1-1 2 2 1zm27 8-2 2 1 2-3 2 1 1 3-2 1-2zm-37 1q-2 3 1 2zm2 2-2 1-1 2 3-1zm26 3 1 3-1 2 2-1v2q-2 1 1 2l2-6-3 1q1-4-2-3Zm-29 1 1 1-2 3 1 1-1 2 2 3v-5l2-1-1-2 2-1zm37 7 1 2q1-3-1-2Zm-38 2-1 1h-2v4l4 2q-1 2 2 1zm57.5-23-1 2zm24 2q3.8-.7 4.5 1.5l-2 3 2 1 .5-1.5.5 1.5-3 3 1 1-4 19.5-6-2.5 5 1q1.1-3.3-1.5-2.5v-1q4.2 1.3 2.5-3.5l3-10-1.5.5-4.5-1-1-2.5 1-3-.5-1.5 2 1zm.5 1 1 2 2-1zm-1 3q1 3-2 2-2 4 2 3l-1-1 4-2z" opacity=".996"/><path fill="#eb2f17" stroke="#eb2f17" d="m82.5 199 3.5 1.5-2 1q.8-2.2-1.5-1.5zm5 2 .5 2-2.5 1zm-21 2 .5 2.5v2q.8 2.6-2.5 1.5l.5-1.5zm22.5 0 2 .5-2 1zm4.5 8 .5 2-2-.5zm13 2 3 2 1.5-.5-2.5 1.5-2.5-.5zm-24 1-1 2zm1.5 2 2 .5-1.5 2.5zm5.5 1-1 2zm43 8 .5 2 2.5-1 .5 2.5q-2.7 3.8-1 12l-1.5 3.5-1-3-1 2-1.5-.5q-1.1 3.3 1.5 2.5l-.5 1.5q.8 2.3-1.5 1.5l-1 3q-1.2-2.3-2.5.5l3.5 1.5h2q2.3.8 1.5-1.5l-1.5-2.5 1.5.5-1-2 1.5-2.5.5 22-3.5 1-2.5-2.5.5-2.5 1.5.5q.8-2.2-1.5-1.5v-1l1.5-.5-2-4.5-2 .5 1 2h-1l-1-2q3.5-1.5 1-3 .8-2.2-1.5-1.5l-2 1v-1l1.5-.5-2-3 2-1-3.5-1.5.5 1.5-1 2 2 1-3 .5 1-3.5-2.5 1.5q-2.6-.8-1.5 2.5v2l1 2-2-1q.8-2.2-1.5-1.5v-1q2.6.8 1.5-2.5v-2l1-2-.5-1.5q2.8 1.3.5 2.5l.5 1.5 2.5-1 2-4-2-.5 1.5-.5 4.5 5.5v2l-.5 1.5 3-2 .5-2.5-2-10.5q-2.7 1.1-2-1.5l4 3-1 2 3-1-.5 1.5 2 1 2.5-1-1-4.5 1-4h-2l.5-2.5 2 1-2-3-1.5-.5zm-3.5 15q-2 3 1 2zm-1 14v2l2-1zm4 1-1 3 1 3h1q1-7-1-6Zm-1 6 1 2q1-3-1-2Zm1 3-2 2 1 1 2-1zm-69.5-38 2.5.5-4.5 1.5v-1zm4 0q2.3-.7 1.5 1.5zm-3 2 3.5 1.5-2.5.5zm5 2 1 2z" opacity=".996"/><path fill="#eb2f17" stroke="#eb2f17" d="m130.5 230-.5 1.5q-1.1 3.3 1.5 2.5l1.5-.5-1.5 4.5-2-4-.5 1.5.5 1.5-3.5-3.5 1.5-1.5 1 2zm-44 5 1 2 2-1 2.5 3.5-2 .5q1.3-3.3-3.5-2-3.2 1.8.5 3.5l.5 1.5 1.5-.5.5 2.5h2q2.3-.7 1.5 1.5l-2.5-1.5-1 1-3.5-3.5-2-4.5q3.1 1.1 2.5-3Zm-32 2 3.5 1.5-2 1 4 1.5 2.5-4 .5 2q-2.7-1.1-2 1.5l-.5 2.5-2.5-1-1 4 2 .5-2 .5-1.5 3 .5-1.5 1-2-2-3 3-2-1.5-.5-2 1-2.5-1 .5-2 3 2v-3z" opacity=".996"/><path fill="#eb2f17" stroke="#eb2f17" d="m82.5 238 .5 2-2 .5 3 1v2.5q2.7-1.1 2 1.5l-.5 1.5 2-1-.5 1.5.5 1.5 3-2v2l2-1q-1.6 1.8 1.5 3.5l-.5 1.5-1.5-3-3.5-1v2l-4-3 .5 1.5-1 2q2.5 1.5-1 3 .8 2.3-1.5 1.5l1 2 2-1v1q-2.2-.7-1.5 1.5l2.5 1.5 1.5-.5q.8 2.6-2.5 1.5l-4-5-2 1v-1l2.5-1.5-1.5-.5-3 2-1.5-.5 2 3-2.5.5-1.5.5.5 1.5-2.5-.5 1.5-3.5 2 1-.5-1.5 1-4-2-1 1 2-1.5 2.5-4.5-3.5 2-1-.5-1.5 3 1q1.8-3.7 3.5-.5v2l.5 2.5 5-3 1.5.5q.8-2.2-1.5-1.5-2.7-1.2-.5-2.5l1.5-2.5 1.5.5 1-2-3-1.5-2-3.5zm.5 10q-3 4 1 3zm-12 5 1 2h1zm-6.5-14-1 2zm6 0q2.3-.7 1.5 1.5l-1.5 3.5-2.5-.5q4.3-2.2 2.5-4.5Zm17 0q2.3-.7 1.5 1.5zm29 0q-1.6 1.8 1.5 3.5l-.5 1.5-2.5-3.5zm-51 2v2l1.5.5-.5 1.5 1.5.5-1.5.5-1.5-3-3-.5zm-13 1 1.5 3.5-.5 1.5 1.5.5-1.5.5-2.5-.5 2-3zm59 0h2l1.5.5-2.5 1.5zm-4 1 2.5.5q-2.1 3.3-2.5-.5Zm-45 2 2.5 1.5-3 .5zm7 0q3 1.5 0 3z" opacity=".996"/><path fill="#eb2f17" stroke="#eb2f17" d="m111.5 245-3 4-2 1-2.5-.5q-.9-3 3.5-1.5zm-47 3 1.5.5-3.5 2.5-1-2q1.5 2.5 3-1Zm32 0 2.5.5q-.7 2.6 2 1.5v2h-2q1.1-2.7-1.5-2zm-45 1 3.5 2.5-2.5-1.5zm60 0 1.5.5-2 1 .5 1.5-3.5 1 .5 2 3-2-1 2-1.5.5 2 1-3 .5-.5-2-1.5.5-2-4.5 5.5 1zm-5.5 3q0 4 2 1zm-46.5-2 1.5 2.5-3 1.5zm31 1v2l1.5.5-4 1q1.3 2.8 2.5.5l1.5.5-2 1 2 .5-.5 2-2.5-.5 1-1-3.5-4.5 1 1zm27 0 1 2q-2.8.7-1-2Zm-61 2-1 2zm41 0h2l2.5 1.5-.5 1.5q2.3.8 1.5-1.5l2 1-1.5 3.5q-1.8-3.1-3.5-1.5l.5-3.5q-2.2-.7-1.5 1.5l-2-1z" opacity=".996"/><path fill="#eb2f17" stroke="#eb2f17" d="M62.5 254q2.6-.8 1.5 2.5l-1.5 2.5-.5-2-2 .5.5 1.5h-2l-3 1 1.5-2.5q-1.1-3.3 1.5-2.5v2l3-1 1.5.5z" opacity=".996"/><path fill="#eb2f17" stroke="#eb2f17" d="m65.5 254 5.5 3.5-2.5 3.5-2-1-.5 2 2.5 1 1-1q1.8 3.1 3.5 1.5.8 2.3-1.5 1.5l-1.5.5.5-1.5q-2.6-.8-1.5 2.5h-1l-.5-1.5-2.5.5 1 2-2-1q.8-2.2-1.5-1.5-1.2 2.3-2.5-.5l-2-3 2-1-.5 1.5 5-3 1.5.5-1-2 1.5-.5 1 3q2.3.8 1.5-1.5l.5-1.5q-4-.5-4-3Zm-.5 6-4 4h5q1 2 2 0l-1-1zm28-6 2 .5-2 1zm31.5 0-.5 1.5-.5 1.5-3-1-1.5 1.5 6 2-2.5.5-2-1v2l-2.5-.5q2.3-1.2-.5-2.5l-2 1v-1l2.5-1.5.5-1.5h4zm-30 3h2q3.3-1.1 2.5 1.5l-1 2 2.5-1.5 1.5 1.5-1.5 2.5-2-1q-2.3 5.2-4.5 1.5.8-2.2-1.5-1.5l-1.5 1.5 1.5 2.5h-2l-1.5-.5 2-1-3-1.5-.5 3-.5-2-2 .5.5 1.5-2.5-.5q-.7-2.2 1.5-1.5l5-2q1.3 2.3 2.5-.5l.5-1.5 1.5.5zm2.5 1-1 2 2-1zm-2 3v3h1q1-4-1-3Zm14.5-3 1.5.5-2 .5-1 3.5.5 2.5 3-1 3.5 2 .5 3 1.5-5-2.5 1v-3l1.5-.5-.5-1.5 2 4 .5-2 2 .5-3 6 3.5 4.5 1.5-.5-2-3h2l-1-2 2-.5-1 4.5h2l-1.5 2.5 1.5.5-1.5.5-2-1 .5 1.5-1.5 2.5.5-1.5q.7-2.6-2-1.5l-2.5 4-4 2 .5-1.5V278h4v-1.5l.5-1.5q-2.2-.7-1.5 1.5h-1q.8-2.2-1.5-1.5l-4-3-2 1v-2l-1.5-.5 1.5-.5q1.3 2.2 2.5-.5l-1.5-4.5-1 2-3-1-2.5 1 .5-2 1.5.5-1-2 1.5.5 3 1-.5-1.5q-.7-2.6 2-1.5v-2.5zm-.5 8v3l3 2 2-3q-2-4-3 0v-1zm6 3q-3 1-1 3l-3 1h4l3 2 1-2-2-3z" opacity=".996"/><path fill="#eb2f17" stroke="#eb2f17" d="m112.5 258 1.5 2.5-2.5.5-1.5-.5 2-.5zm-32 1 1.5 4q-3.8 1.2-1.5-4Z" opacity=".996"/><path fill="#eb2f17" stroke="#eb2f17" d="m78.5 260-.5 1.5-.5 1.5-1.5-.5-1 3 3 1.5 2 4.5-3.5 2.5.5-1.5q.8-2.2-1.5-1.5v-1l2 1 .5-2q-3.8 1-5-1.5l1.5.5 1.5-.5-2-3 2.5-3.5zm48 0 .5 3.5-2.5 4.5v-2l-3-1-2 1 1-2 2.5-.5-1-2.5 3 1.5-1 2 2-1z" opacity=".996"/><path fill="#eb2f17" stroke="#eb2f17" d="m78.5 264 .5 2-2-.5zm3 0 .5 2.5.5 1.5 1.5-.5q-2.3 1.3.5 2.5l2-1 1.5.5.5-1.5.5 3-2.5-1-.5 1.5q1.3 2.8 2.5.5l4-2 1.5.5-1-2 1.5.5q2.3.8 1.5-1.5l-.5-1.5 2.5 7 4 2.5-2 1 .5-1.5-2 1v-2q-2.6.8-1.5-2.5l-2-1 2.5 6.5q3-.8 1.5 3l-2-.5.5-1.5-2.5 1.5q-1.1 3.3 1.5 2.5l2.5 1 3.5-5 2.5.5-3 2 5 1.5-1 2.5 3 .5.5-2 .5 5 2-.5-1-2 3-1.5-1-2.5 3 2-2 .5 4 6.5v2l-1.5 3.5-4.5-1 1 2.5-1.5 2.5-.5-1.5v-2q-1.2-3.7 2.5-2.5v-2l2 1v-3l-2 1q-1.5-3.1-6.5-2.5l2-.5q1.1-2.7-1.5-2h-2q-2.6-.7-1.5 2l2 .5-.5 2.5H103v-6q3.3 1.1 2-3l-5-1 2 4.5v2l-.5 1.5-.5-2-2-.5q3.8-1.7.5-3.5l-1.5 3-2-.5 1-2h-2l-1.5-4.5-.5 2q-2.7 1.1-2-1.5l-1-3 .5-1.5-2.5.5.5 3.5-3 1v-1q2.3.8 1.5-1.5l.5-3.5-3.5.5 2 .5-1.5 3-1.5-6 2-.5-3-1-2-5zm9.5 8-3 2 5 3h-2l2 2 2-6-2 1zm22 14-1 3 2 1q2-1 0-2 1-3-1-2Zm-14.5-22 1.5.5-2.5 1.5z" opacity=".996"/><path fill="#eb2f17" stroke="#eb2f17" d="m99.5 266 .5 2q2.7-1.1 2 1.5l1 2.5h2q-1.1 2.7 1.5 2v1q-5.5-.4-7.5-4.5v-2zm1.5 4 1 2q1-3-1-2Zm-29.5-3 2.5 3.5-5.5 6.5-1.5.5 2 .5 1 2.5-2 1 .5 1.5q-2.8-1.2-.5-2.5l-2.5-4.5-1.5.5.5-1.5-1.5-.5 1.5-.5 2 2 3.5-1.5q.8-2.2-1.5-1.5l-2 1-2-3q-1.2 2.3-2.5-.5-1.1-3.3 1.5-2.5l4 5 .5-2.5-1-2.5q3-1.2 2 2.5l1 2.5q2.7 1.1 2-1.5l.5-1.5q-3.1.7-1-3Z" opacity=".996"/><path fill="#eb2f17" stroke="#eb2f17" d="m104.5 267 1 2q-2.8.7-1-2Zm23 0 2 3 1.5-.5q-2.2 1.2.5 2.5l2.5-1.5q-2.2-1.2.5-2.5l.5 5.5h-1l-.5-1.5-2 5-.5-1.5 1-2-2-1-.5 2.5-.5-2.5q2.7-1.7-1.5-3.5l-2 1zm-2 6 4.5 3.5-2 1-1.5-2.5q-2.8.7-1-2Zm-46 1 2.5.5-1 1 1.5 2.5q-1.7-2.8-3.5 1.5.8 2.6-2.5 1.5l-2.5-1.5 1.5-.5 2 1 1-2-2.5-1.5 1.5.5 1.5-.5q-2.2-1.2.5-2.5Zm30 0q2.8 1.3.5 2.5 1.3 3.8-2.5 2.5v-1q2.3.8 1.5-1.5zm13 2 2.5 1.5-1.5-.5z" opacity=".996"/><path fill="#eb2f17" stroke="#eb2f17" d="m133.5 276 .5 2.5-.5 2.5-1.5-.5 1 4q-2.7 1.1-2 4.5l3 1.5-3 1 1 3-1.5-.5q-3.7 1.3-2.5-2.5h1q-.7 2.3 1.5 1.5l-.5-1.5-2-8.5 2 .5-1 3 3-2-2.5-3.5-2.5.5q.7 2.6-2 1.5l-.5-2q-1.2 2.2-2.5-.5l-.5-1.5-.5 2.5 6 3-4.5 2.5-2.5-1.5 1.5-.5 2.5 1q1.1-2.7-1.5-2-1.7-3.7-3.5-.5l-.5 1.5-2.5-4.5 2-1v2l.5 1.5 3-5 5 3-.5-1.5.5-2.5 1 3 3-1 1.5.5zm-62 1 .5 2.5-2-1zm64 1 .5 2.5h-1zm-54 1 2.5.5q.8 2.3-1.5 1.5zm25 1q3.3-1.1 2.5 1.5l-1.5-.5zm-34 2q2.3-.7 1.5 1.5zm3 0 3 4 3.5-2-.5 2q-1.5-2.5-3 1l-1.5.5 2.5.5 5-2v1l-1.5.5q1.8 3.3 3.5-.5l1.5-.5-3.5-2.5-1.5.5-1-2 2.5-.5 1.5 1.5q-.7 2.3 1.5 1.5l3 5q1.5-3.5 3-1l3-2 5.5 3 1 2.5-1.5-.5-2-1-.5 2-2.5-1-4 1-1.5-.5 1.5 2.5 1.5-.5-1.5 2.5 2.5.5-.5 2.5q-1.2-2.2-2.5.5l-1 4.5 2 .5-1.5.5-2-4-1 2q-2.7-1.2-.5-2.5l3-6-1-3q2.3-1.2-.5-2.5-1.2 2.3-2.5-.5l-.5-1.5q-2.7 1.2-.5 2.5-.8 3 3 1.5v3.5h-1q1.3-4.6-4.5-2.5l-2.5-1q-1.1 2.7 1.5 2l2.5.5q1.9 5.4-1.5 4.5l1 2 2-1-1 2-3.5-2.5 1-3-3-1.5 1.5-4 3.5 1-2.5-4-5.5 1 .5 3 2.5-1.5-4 2.5-1-6q3 1 2-2l-2.5 1zm21.5 6-2 2q-4-1-3 2 5 2 4-2l3 1v-2zm-5 9-2 3 1 2v-1q4-2 1-4Z" opacity=".996"/><path fill="#eb2f17" stroke="#eb2f17" d="m92.5 282 1.5 1.5-.5 2.5-3.5 1-2-3.5 2.5 1.5q2.9.7 2-3Zm43 1q2.6-.8 1.5 2.5h-1l-.5-1.5-1.5.5zm-63 3v3q-3-1.5 0-3Zm45 0q2.3-.7 1.5 1.5h2l-1.5 1.5zm19 1-.5 1.5-.5 1.5-.5-1.5z" opacity=".996"/><path fill="#eb2f17" stroke="#eb2f17" d="m123.5 288 2 3 .5-1.5-.5-1.5 2.5 1.5q-3.5 1.5-1 3l1 5.5q3 1 2-2h3l-.5 3-1-2-1.5 2.5q2.3 1.3-.5 2.5l-1.5.5 2.5.5 3.5-1.5-1-1q3.1-1.8 1.5-3.5l4 1-2-3-1.5.5q-.7-2.2 1.5-1.5 2.8-1.2.5-2.5l.5-2.5 2 7 1.5-.5-1 3.5-4 1-1 2.5 1 2.5-3 1.5 1.5.5 2-1 2.5 1-.5 2-3-2-.5 2.5h2q-2 3.5-4-1l-.5-1.5-1.5.5q1.7-4.8-2.5-3.5l-2.5-1.5 1 2-3-1-2.5 3.5.5-1.5q-1.1-3.3 1.5-2.5v-1l-1.5-.5 1.5-.5 1.5.5-2-3-1.5-3.5-1.5 3.5 1 2-2.5.5-3.5 1.5 2.5 1.5 1-2 1.5 3.5-.5 2.5q-2.7-1.2-.5-2.5l-.5-1.5-3 1q-1.5-2.5-3 1l-2.5.5 4 2-1 2v2l2.5 2.5 1.5.5-1.5.5-3-2-1.5.5 2-3-1-2.5q-4.1 1.7-3-2.5l1-3-.5-1.5-2 1 .5-1.5q.7-2.6-2-1.5l-.5 2-.5-1.5 3.5-1.5q.8 2.8 5 2h2l3.5-1 1-4.5-.5-3.5 4 6q2.7-1.2.5-2.5zm2.5 9q-4 2 1 4l2-1-2-1v-1zm-15 5v3l3-1zm-.5-12 1.5 2.5-1.5-.5-1.5.5.5 1.5-1-1-2.5 1.5z" opacity=".996"/><path fill="#eb2f17" stroke="#eb2f17" d="m135.5 291-1 2-1.5-.5zm-39 3 3.5 1.5-3 1.5-.5 2-.5-2.5z" opacity=".996"/><path fill="#eb2f17" stroke="#eb2f17" d="m101.5 295 2 3 1.5.5-2 3q3.7.8 3 6h-1l-1.5-4.5-1 3-2-4-2.5 3.5 1.5.5 1.5-.5q.8 2.6-2.5 1.5l-1.5-3q3 1 2-2l-4.5 1-1-2 2 1 5-1 1.5.5z" opacity=".996"/><path fill="#eb2f17" stroke="#eb2f17" d="m103.5 295 6.5 2.5-1.5-.5q-4.9.6-5-2Zm12 2 1 2-2.5-.5zm25 3 1 3 1.5-.5-1.5 2.5-1-2-.5 3-3-1.5 2-1-1.5-2.5 2.5 1zm-52 5 3.5 2-1.5 4-2.5-4.5zm7 1 1 2-2.5-.5zm12 1 .5 2.5-.5 1.5 2 1 1.5-.5q.9 3-3.5 1.5l-3.5 2.5.5 2.5q3.3-1.1 2.5 1.5-2.5 1.5 1 3l1 2h-3l1-2-1.5-1.5-2.5 1.5 2-3-2-4 3-2-1.5-2.5-2.5 1-1.5-3-2.5-.5 2.5-.5q2.5 5.5 5 1 2.5.7 2-2Zm18.5 0 4 1q1.1 2.7-1.5 2l-1.5.5 1-2-2 1-.5 2.5-1.5-3q3 1 2-2Zm-3.5 1 .5 2.5-6.5 3.5-1.5-3.5h1l.5 2.5 1.5-2.5-.5-1.5 2.5.5-.5 1.5q4 1.1 3-3Zm21 1 1.5 3.5h-1z" opacity=".996"/><path fill="#eb2f17" stroke="#eb2f17" d="M131 310h2q-1.1 2.7 1.5 2l1 2-2-1-2.5 4q-2.7-1.1-2 1.5l1.5 2.5-2.5-3.5 4-5z" opacity=".996"/><path fill="#eb2f17" stroke="#eb2f17" d="m138.5 310 3.5 2.5q.8 2.3-1.5 1.5v-2q-3-.9-1.5 3.5l-3 1q-.9 3.4 4.5 1.5v1l-4 1-1-2q-3.7 2-2 4l-1.5-1.5 3-3-1-1 .5-1.5 3.5.5-1-3.5 2-.5zm-46 2 3 4zm36 0 1.5.5-3.5 1.5v-1zm-29 1 .5 2 2 .5-2 .5-.5 2-2-3 1.5.5zm22.5 0 2 .5-2 3.5 3-.5-.5-1.5 2.5.5-2.5 2.5-7 2v-1l2.5-.5-2-1 .5-2.5q4.8 1.3 3.5-2Zm-13.5 1 1.5.5-2 .5-.5 2-.5-1.5zm37 0 2 4 1.5-.5-1 2 1.5 2.5 1.5-.5-1 2 2 3-2-1-.5-1.5h-6l-1.5-.5 4-1-.5-1.5 3.5 2.5-1-3.5-2-.5q2.3-1.2-.5-2.5l-1.5.5zm-2 1-.5 1.5-.5 1.5-.5-1.5zm-32 1-1 2zm1 2 3.5 1.5-2.5 1.5v-2zm11 1h2l1.5.5-.5 1.5 1.5.5-1.5.5-2.5-.5zm-12 1 .5 1.5-2 1z" opacity=".996"/><path fill="#eb2f17" stroke="#eb2f17" d="M121.5 320q3 1.5 0 3zm13.5 1 2 .5-2 1zm-20.5 1 2.5 1q-1 3 2 2l.5-2 .5 1.5q-.5 3-4.5 2.5v-1l1.5-.5-2-.5zm17 0 1 2q1.3-2.2 2.5.5l-1 4 .5 1.5-2-1-2 2-2.5-.5q-.7-2.2 1.5-1.5 1.8 2.8 3.5-1.5l-2-.5-1-3.5zm2.5 2-2 2 2 1zm-7.5 0 2 3zm-14 1 .5 2.5h-1zm25 0 2.5 1.5-1.5-.5z" opacity=".996"/><path fill="#eb2f17" stroke="#eb2f17" d="m120.5 326 1 3 1.5-.5-3 2q2.3-1.2-.5-2.5l-1.5.5zm4 0 2.5 1.5-1.5-.5zm18 1 1.5 3.5-2-1zm-2 1-2 3-1.5-.5zm12 0q3.8 2.7 4.5 8.5l-4.5 3.5q-1.2-2.7-5.5-2.5l3.5-5.5 3.5.5zm2.5 5-4 1 2 5 3-2zm-39.5-4 2.5 1.5-1.5-.5zm10 0 1 2zm20 1 1.5 2.5h-3zm-24 2 3.5 1-.5 3-.5-2zm6 0 3.5 2.5-1.5-.5-3.5-.5zm9 0 1.5.5-1.5 3.5-1.5-2.5zm5 1 2.5 1.5-2.5 1.5q-3-1.5 0-3Zm-15 2 4.5 1-.5 2-4-2zm7 0 1 2zm3 2 4 1 2-1v1l-1.5.5.5 1.5-5-2zm22 0 7.5 9.5-4-3-.5-1.5-1.5.5zm-26 1 3.5 1.5-2 1 .5 1.5-3-2-1.5.5zm25 1v3q-3-1.5 0-3Zm-17.5 3q3-1 2 2-3 1-2-2Zm12.5 0 .5 2.5h-1zm-14 1-1 2zm18 1 1.5.5-2.5 1.5zm-8 1 3.5 1.5-1.5.5-2-1-1.5.5zm8.5 1 2 .5-2 4.5-3-.5 2-.5zm-3.5 1-1 2zm9 0q3 1.5 0 3zm-3 1 1.5 1.5-.5 2.5q-2.5-1-1-4Zm8 0 2.5.5-1 1 2.5 3.5-3-2-1.5.5 1-2zm-17 1 1 2zm15 1-1 2zm-3 2q3 1.5 0 3zm9.5 2q3-1 2 2-3 1-2-2Z" opacity=".996"/><path fill="#03763c" stroke="#03763c" d="m415.5 149 .5 2.5h-1zm1 4 1.5 2.5-2 1v-2zm6 13 2.5 5.5h-1zm-5 2 .5 12.5h-1zm-1 17 .5 5.5h-1zm13 0 .5 2.5h-1zm2 7 .5 2.5h-1zm-16 3 .5 3.5h-1zm18 5 .5 3.5h-1zm-20 7 .5 2.5h-1zm22 4 .5 5.5h-1zm-24 4 .5 2.5h-1zm25 5 .5 6.5h-1zm-28 5 .5 2.5-1.5 2.5-.5-1.5zm28 3 1.5 1.5v23h-1v-23zm-31 6 .5 1.5-1.5 2.5-.5-1.5zm-2 5 .5 1.5-1.5 2.5-.5-1.5zm-2 5 .5 1.5-3.5 6.5-.5-1.5zm-349 10Q63 281 81 300.5l-.5 1.5 3.5 2.5.5 2.5 1-1 15 15q27.2 24.3 67 36 8.6.4 14 4h4l2 2h10l3 2h35l1 1 1-1h6.5q-1.2-3 2.5-2v2l5-1v2q2.3.8 1.5-1.5l3.5-1.5 2.5 1 .5-2 3 2-.5-1.5q-.9-3 3.5-1.5l3-1 2-1-.5 1.5q-.7 2.3 1.5 1.5l3-1 4.5-.5-3-1 1.5-2.5 2 3 1-3 2.5.5q.8 2.3-1.5 1.5v2q-1.2-2.2-2.5.5l2 .5-1 2.5q2.5 1.5-1 3-1 3.8 2 2.5-1.5-3.8 1.5-3l-.5-1.5.5-1.5 2 3 1-2q-2.6.8-1.5-2.5l.5-1.5-1.5-.5 1.5-.5 1 1 3.5-3.5-2-3 2-1-1 2q3.1 1.8 1.5 3.5l4-2-2 3-3-1-1.5 2.5.5 1.5-2.5-1 1.5 3 1.5.5q-2.2 1.3.5 2.5 2.3.8 1.5-1.5v-2l-1-2 2.5-1.5v1l-1.5.5 1 2-.5 1.5 6.5-2.5-3-4.5 3 1.5q-2.2 1.3.5 2.5 2.6.8 1.5-2.5l-.5-1.5 2 4 2.5-1.5-.5-1.5 2.5 1.5-2 1 .5 1.5-2-1-1.5 3.5q2 4.5 4 1l.5-1.5q1.6 4.9 9 4 1.3-2.2 2.5.5l-1 3.5q2.7 1.1 2-1.5l.5-3.5-4-2-.5 2q-2.7 1.1-2-1.5l1.5-3.5 1.5.5.5-1.5.5 1.5-1 2.5 2.5 1 1.5-2.5-.5-1.5 2.5 1.5-2 5 3.5.5 1.5-1.5-2-2 .5-2.5 2.5 4.5-2.5 2.5-3.5 1 1.5 3 1.5-.5q-2.2-1.2.5-2.5l2.5 1.5v2l-1 2 1.5.5h2l1.5-.5v-4q-.7-2.2 1.5-1.5v-1l-1.5-.5 2-.5-.5-2-1.5.5 2.5-3.5-.5 1.5 2.5 3.5.5-1.5q-2.7-1.7 1.5-3.5 2.6-.8 1.5 2.5l2.5.5 2.5 1.5h-2l2 3-1.5 2.5 2.5-1.5.5-1.5 1.5 3 2-.5-1-3 1-2-2.5-.5-1.5.5-1-2 1.5-.5 4.5 2.5-1 2.5 2.5-1 1.5.5 1-2-1.5-2.5-1.5.5q2.2-3.8 4.5 1.5l3-3 2 2 2.5.5-4 1 2.5 1.5 1.5-.5-1 3 2 1v2l.5 1.5 1.5-2.5-.5-1.5 2-1-.5 1.5.5 1.5 3.5-4.5-1-2.5 2.5-1-1.5 2.5 2.5 3.5q-1.8-3.8-3.5-.5l1 5.5h-2q1.1 2.7-1.5 2l-1.5-.5.5 2.5q1.5-2.5 3 1l1.5-.5-1-2 2 1q-.8 2.6 2.5 1.5v-1l-1.5-.5 2-.5.5-2 1 2 2-3-1.5-.5 2-1-.5-1.5q1.8 3.8 3.5.5l-2-1 1.5-.5 1 1 11.5-11.5q14.2-16.3 24.5-36.5l.5 1.5q-16.9 31.6-42.5 54.5-14.9 13.6-33 24l-29 14h-3l-9 4h-4l-3 2h-5l-3 2q-7.4-.9-11 2h-9l-10 2h-19q-7.2-3.3-19-2l-4-2h-7l-3-2h-5q-2.5-3.2-8.5-2 1.4-4-5.5-2l-2-2h-3L155 413q1.3-3-2.5-2L125 392.5q.8-2.6-2.5-1.5L96 365.5l-2-5.5-5-3.5-3-6.5q-2.7 1.1-2-1.5l-4-6V340l-3-1.5.5-1.5H76v-4q-3 1.3-2-2.5-2.7-1.1-2-4.5h-2v-5h-2v-5h-2v-5h-2v-5h-2q1.5-6.3-2-5.5v-6l-2-.5v-7.5q-3.2 1-2-5V278l-2-.5v-7q1.2-7.9-2-7zM75 297v2l2-1zm15 15q-2 3 1 2zm-3 3 1 2q1-3-1-2Zm9 4q-2 3 1 2zm48 30-1 3h1zm124 13-1 3q-1 2 3 1 2-5-2-4Zm32 1-7 3-2 4q-2 1 1 2v-2h2l-1-2q2 1 4-2 2 1 0 3l3 5 3-2q-2 2 2 4l2-1-2-1-1-2 3-1 2 2-1 2h2l1-2 1 3h3q1-3-2-2v-3l-2 1q-1-3-5-2v-1l-2-1-1 3-4-1h3l-3-2 1-3zm-36 1q0 4 2 1zm9 0-1 3 2 1v-2h2q1-3-3-2Zm6 0-2 3h2zm-10 3-2 3h2zm7 1-4 2h4zm12 0v3q3-1 0-3Zm46 1v2l2-1zm4 0-2 2q1 3-1 2v2q-1 2 3 1l1-2q1-3-1-2zm-66 1-2 3 3 1v-2zm23 0 2 3q1-4-2-3Zm-28 1 2 4q2-1 0-2 1-3-2-2Zm27 0-1 4 2-1zm40 0-2 2h2zm-80 1 1 2q1-3-1-2Zm26 0v2l2-1zm71 0q-1 3 2 2 1-3-2-2Zm7 0-2 3 1 2h1zm-99 1v2l2-1zm24 1 1 2 2-1zm6 0 1 2h1zm6 0v2q-2 1 1 2l2-3zm38 0v3h1q1-4-1-3Zm-46 1q-2 3 1 2zm14 0v2l2-1zm16 0-5 3 1 1 5-1zm12 0 2 2v1q-3-1-2 3l2 1q-1-4 3-3v-1q-3 1-2-2h-1zm25 0q-2 3 1 2zm-62 1-1 3h2zm7 0-2 2q-1 3 2 2l-1-1 2-1q1-3-1-2Zm8 0 1 3h2zm3 0 1 2q1-3-1-2Zm-40 1-1 3h1zm14 0-2 3 4-1q1-3-2-2Zm51 0v1h2zm-56 1v2l2-1zm21 0v2l2-1zm22 0-1 1q-3-1-2 2l3 1 2-1-2-1zm16 0v3l2-1zm27 0-2 2h3q1-3-1-2Zm-77 1q-2 4 2 3v-2zm46 0v2l3 1v-1zm-28 1-1 4h1zm6 0v3h1q1-4-1-3Zm4 0v3h1q1-4-1-3Zm-15 1 1 5 1-3zm23 1v1h2zm10 0v2l2-1zm-25 3 1 2q1-3-1-2Zm18 0 1 2q1-3-1-2Zm38 0v4-1q2-2 0-3Zm-52 1 1 2q1-3-1-2Zm123.5-132 .5 9.5h-1zm-40 1-.5 1.5-3.5 6.5.5-1.5zm39 10 .5 4.5h-1zm-1 7 .5 4.5-1.5 4.5-.5-3.5zm-2 10 .5 3.5-2.5 7.5-.5-2.5zm-5 18 .5 2.5-1.5 2.5-.5-1.5zm-2 6 .5 2.5-5.5 11.5-.5-1.5zm-6 15 .5 1.5-3.5 5.5.5-1.5zm-118 27-1 2zm31 1 1 2zm-25 1 1 2z" opacity=".996"/><path fill="#03763c" stroke="#03763c" d="m317.5 350 1.5 2.5-2-1zm-27 1 2 1 1.5-.5-2.5 5.5-.5-2.5 1-1zm30 0q2.3-.7 1.5 1.5zm35 0v3l-1.5-.5-.5 1.5-.5-1.5zm-49 2 .5 1.5-1.5 2.5-.5-1.5zm4 1 1 2q-2.8.7-1-2Zm10 0 1 2 1.5-.5q.7 3-3 1.5zm37 0-1 2zm-73 2 2.5 1.5-1.5-.5zm46 0 .5 3.5h-1zm4 1-1 2zm5 0 .5 1.5-2 1zm-65 1-1 2zm40 0q3 1.5 0 3zm28 0q3 1.5 0 3zm-33.5 1 3 1.5h-3zm18.5 0 2.5 3.5-.5 2.5-2.5-1.5 2-.5zm-2 1 1 2q-2.8.7-1-2Zm36 0 1 2zm-54 1 1 2zm28 0-1 2zm-24 1-.5 1.5-1.5 4.5-.5-2.5zm30 0 1 2zm19 0-1 2zm-28 1 1 2zm-7 2 2 3-2.5-.5zm25 0 2 3zm-7 1 1 2zm20 1 .5 1.5-1.5 2.5-.5-1.5zm-38 2q2.3.8 1.5 4.5h-1zm45 2 1 2zm1 5 1 2-1.5-.5-1.5 2.5.5-1.5z" opacity=".996"/><path fill="#228a3b" stroke="#228a3b" d="m416.5 151 1.5 2.5h-2l1.5 2.5 1.5-.5.5 4.5 1.5-.5 1 3-.5 1.5q2.3-.7 1.5 1.5v2l.5 2.5 1.5-.5-1 2.5 2 .5-1 2h2l-1 3h2l-1 2 2 .5-1 3.5h2l-1 4h1l.5-1.5.5 2.5-1 2h2l-1 4h2l-1 4h2l-1 5h2l1 7q-2.3 1.2-1 6h1l.5-1.5.5 4.5q-2.5 1.5-1 7h1l.5-2.5.5 4.5-1 1v23l1 4h-1l-.5-2.5-.5 9.5 1 3h-1l-.5-1.5-.5 4.5 1 3h-2l1 6h-1l-.5-1.5-.5 3.5 1 2h-2l1 4h-2l1 4h-2l1 4h-2l1 3h-2l1 3h-2l1 3h-2l1 3h-2l1 3h-2l1 2h-2l-1 4 .5 1.5-1.5-.5 1 2h-2l1 2-2 .5 1 2.5-3 1-1 3 .5 1.5-2.5 1.5 1 2h-2l1 2h-2l1 2h-2l-1 2 .5 1.5-1.5-.5 1 2h-2l-1 2 .5 1.5-1.5-.5-1 2 .5 1.5-1.5-.5-1 2 .5 1.5-1.5-.5-1 2 .5 1.5q-1.2-2.3-2.5.5l-1 2 .5 1.5q-1.3-2.2-2.5.5l-1 2q2.3 1.3-.5 2.5-1.7-2.8-3.5 1.5l-1 2q2.2 1.3-.5 2.5l-1-1-16.5 16.5q2.3 1.3-.5 2.5v-2q-3.3-1.1-2.5 1.5l-2 1 1-2.5-3.5-2-1.5.5q1-3.7-2-2.5l-1.5 3 .5-1.5-1-2 2.5-.5 4.5-2q-1 3 2 2l-1.5-6-2 3-.5-2-2 .5 1 2-2 1-.5-1.5-2.5 1.5 2.5-3.5-1.5-.5 1-3-2 1-.5 4.5-1.5-2.5 2-3-3-2 1.5.5 3.5-.5-4.5-2.5q-4.2 1.8-1.5 3.5l-1 3.5q-3 1-2-2 2.7 1.1 2-1.5l-3-2 1 2-1.5 2.5h-2l-2.5 1.5.5 1.5q-2.2.8-1.5-1.5l-2-1 1 2-2.5.5-2 1-3.5-1-.5-2-.5 3 5.5 2 2.5-1.5-4 3-1.5-2.5-2.5.5 3 2-2.5 3.5-.5-2 2-.5-2-.5q1.1-3.3-3-2-1.5 3.8 1.5 3v1l-3-2-1.5.5 1-3-1.5.5-1.5.5 1 2-3.5 1.5v-1q3.3 1.1 2.5-1.5l-3-2 1-2-1.5-3.5-1.5.5q2.3 1.3-.5 2.5l-2.5-1.5q-.7-2.2 1.5-1.5l2.5-1.5-3.5-.5-1.5 3q-2.7-1.1-2 1.5l3 1 1.5 2.5 2-1 .5 2 2 .5-2.5 1.5-2-1v2q-2.7-1.2-.5-2.5l-1.5-2.5-5 1-.5-1.5v-2l-1.5-2.5-.5 2-3 1.5 2.5 1.5v-2q2.3-.7 1.5 1.5l-5 3-.5 3.5-.5-3.5q3.5-1.5 1-3l1-2-1.5-.5-2 2-2.5-.5-3.5-6.5-1 3-1.5-.5q-.8 2.6 2.5 1.5l-1.5 2.5-.5 1.5q-2.7-1.3-.5-2.5l-.5-1.5-1.5.5 1-4-2-.5-.5 2q-2.7-1.2-.5-2.5l1-3-2-.5q1.1 2.7-1.5 2l-1 3-.5-3-2.5-1-1 2-.5-2q-3-1.2-2 2.5l.5 1.5-2.5-1q1.5-3.8-1.5-3v2l-1.5-.5 3.5 5.5.5-2 2 .5-5 3 .5 1.5-2-3q1.3 2.3 2.5-.5l-2.5-3.5-3.5.5 1.5 4.5-3-2-2.5 1.5-.5-1.5-1.5.5 1-2.5q2.7-1.1 2 1.5l2-1 1-2-.5-1.5 3 1 4.5-5.5-1.5-.5-2 3-1.5-.5-.5 2.5-1.5-1.5.5-2.5q5.1.6 6.5-2.5l-4.5-.5-3 1H270v4h-2.5l-1.5.5 2-4.5q3 1 2-2l-2.5 1h-2q-4.4-1.5-3.5 1.5l4 2-3 2q2.3-1.2-.5-2.5l-3-2-.5 1.5.5 1.5-5-2-1.5 3-2-.5.5-1.5-5 1v-2l-1.5-.5 10.5-.5 3-2h6l3-2h5q1-3 6-2l2-2h4l6-4h3l2-2 19-8 16.5-10q-1.1-2.7 1.5-2l8.5-6q-1.1-2.7 1.5-2l8.5-6.5V312h2v-2h2q-1.1-2.7 1.5-2 13.1-9.9 20.5-24 2.7 1.1 2-1.5l10-14 2-5.5 2-.5-.5-1.5 1.5.5-1-2h2l-1-2h2l-1-2 2.5-3.5q2.3.8 1.5-1.5l1-2-.5-1.5 1.5.5-1-2h2l-1-2 2-.5-1-2.5h2l-1-2 2-.5 1-3.5-.5-1.5q2.3.8 1.5-1.5l-.5-1.5q2.3.8 1.5-1.5l-.5-1.5 1.5.5-1-3 2-.5-1-2.5 2-.5-1-3.5h2l-1-4h2l-1-4h2l-1-5.5q2.7 1.1 2-1.5l-1-4h2l-1-7.5q4 1.4 2-5.5-2.7-1.7-1-8h1l.5 3.5.5-12.5-2-2v-9q2.5-1.5-1-3zM321 351l1 2q1-3-1-2Zm-29 1 1 2q1-3-1-2Zm0 2-1 3h1zm19 0q-2 3 1 2zm10 0-1 3q4 1 3-1h-1zm10 2-1 4h1zm-53 1-1 2v1h2zm5 0-2 2h2zm60 1v3q3-1 0-3Zm-55 1-2 3 2-1zm2 0v1h2zm4 0v2l2-1zm15 0v2l2-1zm-9 1-1 3h1zm26 0q-2 3 1 2zm-46 2 1 2q1-3-1-2Zm5 0-1 3h2zm17 0 1 2h1zm9 1-2 3 1 2 1-2zm17 0 1 2h1zm-48 1v3q3-1 0-3Zm15 0-2 1v1l4-1zm18 0-2 4q-1 2 2 1l1-2zm5 0 1 3-1-1-2 3 3 1 1-4zm-31 1-1 2 2-1zm13 0-1 3h2zm-3 1q-3 1-1 3l-3-1 2 2q3 1 2-1 2-2 0-3Zm8 0q-2 3 1 2zm30 0-1 3h2q2-4-1-3Zm-31 2-3 2v1l3-1zm3 0-1 2h3zm35 0 1 3 3-1zm-11 1-1 2v2l2 2 2-1-1-1q1-2-2-4Zm7 0-1 3h2l1-2zm-28 1q0 3 2 1 2-1 1 3 3 1 2-2t-5-2Zm17 0-1 4h1zm9 0-2 2q-1 2 2 1zm31 0v2l2-1zm-65 2-2 2 3 1v-2zm4 0-2 2 4 1 1-2h-1zm34 0-2 3 1 1q4-2 1-4Zm-12 1q-1 3 2 2 1-3-2-2Zm5 2-1 3h2zm31 5 2 2q1-3-2-2Zm4 2-1 2 2 1zM51.5 251l1.5 2.5-1 1v9.5q3.5-1.1 2 6.5v7l2 .5v7.5q3.3-1 2 5v3.5l2 .5v5h-1v-4l-2-2q1-6-2-8v-5l-2-3v-11l-2-3z" opacity=".992"/><path fill="#228a3b" stroke="#228a3b" d="m54.5 262 2.5.5q-2.1 3.3-2.5-.5Zm6 12 1 2zm7 8 1 2-2.5-.5zm2 3q3 1.5 0 3zm1 8 1 2zm7 3 2 3-2-2-2.5 1.5q-.7-2.2 1.5-1.5zm-17 5H62v5h2v5h2v5h2v5h2v3.5h-1l-8-19zm20 0 6.5 5.5h-3q.5-4-2.5-4.5zm6 8v3q-3-1.5 0-3Zm3 3 1 2q-2.8.7-1-2Z" opacity=".992"/><path fill="#228a3b" stroke="#228a3b" d="M86.5 315q2.3-.7 1.5 1.5zm10 1 4 5h-4q-2.2.8-1.5-1.5 3.1-1.7 1.5-3.5Zm-1 6-1 2zm9 1 2 3-2.5-.5zm-34 3q2.6-.8 1.5 2.5 2.8 1.1 2 4.5 3-1.2 2 2.5h-1zm39 1 2.5 4.5-.5 1.5-2.5-3.5zm4 3 1 2zm4 3-.5 1.5-1.5 2.5.5-1.5zm2 1 1 2zm1 3 1 2zm-43 2 2.5 1v2.5l4 6-2-1zm52 1-1 2zm11 6-1 2zm2 2 1.5 3.5h-1zm-57 2 3.5 5.5-2-1zm67 1-1 2zm9 3-1 2-1.5-.5zm6 2 1.5.5-2.5 1.5zm-78 1 4.5 3q-.7 3.4 2 4.5l-3-2zm86 1-1 2zm6 2 3.5.5-3.5.5zm5 1 1 1 8.5.5-8.5.5zm12 2 3 1h38l4.5-1q1.1 3.5-6.5 2h-37zm58 2v2l2.5 1.5-2.5 1.5v-1l1.5-.5-3-2zm5 0-1 2zm-13 1 1.5.5-2 1 .5 1.5-2-1-1.5.5zm20 1 .5 3-2-.5zm-14 3q2.8 1.3.5 2.5l1 2-3-2 2-1zm11 1-1 2zm20 1 2 1 2-1v1l-1.5.5 4 3 1 2-2 .5q1.5-3.8-1.5-3l-3-2 2 4-2.5-1 1 2.5-2.5-1.5-1.5 1.5 2 1-3.5 2.5-1-2q1.3 2.2 2.5-.5l-1.5-2.5-3.5 2.5 1-2.5q2.7 1.1 2-1.5h1l.5 1.5 3.5-1q1.1-2.7-1.5-2l-1.5.5q-.8-2.6 2.5-1.5zm-182 1 2 3zm155.5 0 2 .5-3 2zm95.5 0 .5 1.5-.5 2.5q-2.2.8-1.5-1.5zm-104 1-1 2zm16 2 1 2zm4 0-.5 1.5-.5 2.5-.5-2.5zm2 0 4.5 3.5-.5 1.5-3-4zm26 0 3 2 1.5 2.5h-1l-.5-1.5-1.5.5q.8-2.2-1.5-1.5v2q-2.6.8-1.5-2.5zm47 2 1.5 2.5-2-1z" opacity=".992"/><path fill="#228a3b" stroke="#228a3b" d="m288 379 2 .5-1 1 1.5 2.5-2.5-1zm61.5 0 2 3zm5 0 1.5.5-2 1 2 1-1.5.5q-3-1.5 0-3Zm-83 1 1 2zm37 0-1 2zm3 0q2.6-.8 1.5 2.5l-3.5 4.5-1-2 2.5-1.5-1.5-.5-1.5.5 2.5-1.5 1.5.5zm4 0q2.6-.8 1.5 2.5h-1l-.5-1.5-1.5.5zm-21 1 1 2zm6 0 2.5 1.5-1.5 3.5zm-5 3 2.5.5-.5 2.5-2.5-1.5-.5 1.5-.5-1.5zm28 1 1 2q-1.5-2.5-3 1l-1.5-.5zm3 0q2.3-.7 1.5 1.5zm35 0 1 2zm3 0q2.7 1.2.5 2.5l-.5 1.5zm-52 1q2.3-.7 1.5 1.5zm-32 1 1 2zm27 0 1 2zm-188 1 2 3zm240 0 2.5 1.5-1.5.5zm-40 1-2 5-1-4q1.5 2.5 3-1Zm45 1q3 1.5 0 3zm-241 1q2.3-.7 1.5 1.5l.5 1.5zm239 0-1 2zm-6 2-1 2zm-64 1-1 2zm22 0 1.5.5-2.5 1.5zm-185 2 3.5 2.5-1.5-.5zm226 1 2.5.5q-2.1 3.3-2.5-.5Zm-220 3 1 2zm5 3 1 2zm3 2 1 2zm202 0-1 2zm-196 4 2.5 1.5-1.5-.5zm16 8 2.5 1.5-1.5-.5zm15 6 2.5 1.5-1.5-.5zm5 2 3.5.5-3.5.5zm7 2 4.5 1.5-1.5.5-3-1zm7 2 3.5.5-3.5.5zm88 0 2.5.5-2.5.5zm-79 2 7.5 1.5-2.5.5-5-1zm70 0 2.5.5-2.5.5zm-58 2 8.5.5-8.5.5zm44 0 4.5.5-4.5.5zm-34 1 4.5.5-4.5.5zm25 0 4.5.5-4.5.5z" opacity=".992"/></svg>